<?xml version="1.0" encoding="UTF-8" standalone="no"?>
<!-- Created with Inkscape (http://www.inkscape.org/) -->

<svg
   xmlns:dc="http://purl.org/dc/elements/1.1/"
   xmlns:cc="http://creativecommons.org/ns#"
   xmlns:rdf="http://www.w3.org/1999/02/22-rdf-syntax-ns#"
   xmlns:svg="http://www.w3.org/2000/svg"
   xmlns="http://www.w3.org/2000/svg"
   xmlns:xlink="http://www.w3.org/1999/xlink"
   xmlns:sodipodi="http://sodipodi.sourceforge.net/DTD/sodipodi-0.dtd"
   xmlns:inkscape="http://www.inkscape.org/namespaces/inkscape"
   width="744.09448819"
   height="1052.3622047"
   id="svg2"
   version="1.1"
   inkscape:version="0.48.2 r9819"
   sodipodi:docname="bunny_run_2.svg">
  <defs
     id="defs4" />
  <sodipodi:namedview
     id="base"
     pagecolor="#ffffff"
     bordercolor="#666666"
     borderopacity="1.0"
     inkscape:pageopacity="0.0"
     inkscape:pageshadow="2"
     inkscape:zoom="0.5"
     inkscape:cx="380.31283"
     inkscape:cy="432.34579"
     inkscape:document-units="px"
     inkscape:current-layer="layer6"
     showgrid="false"
     inkscape:window-width="1076"
     inkscape:window-height="856"
     inkscape:window-x="0"
     inkscape:window-y="0"
     inkscape:window-maximized="0" />
  <metadata
     id="metadata7">
    <rdf:RDF>
      <cc:Work
         rdf:about="">
        <dc:format>image/svg+xml</dc:format>
        <dc:type
           rdf:resource="http://purl.org/dc/dcmitype/StillImage" />
        <dc:title></dc:title>
      </cc:Work>
    </rdf:RDF>
  </metadata>
  <g
     inkscape:groupmode="layer"
     id="layer6"
     inkscape:label="tail"
     style="display:inline">
    <g
       id="g4353"
       transform="matrix(0.91213897,0.35233603,-0.35233603,0.91213897,307.19602,-9.0073761)">
      <path
         inkscape:connector-curvature="0"
         id="path3239"
         d="m -82.8125,449.1875 c -25.07801,19.85195 -50.99783,64.3209 -22.96875,105.5 32.634373,47.945 71.825086,95.37638 106.6875,82.6875 15.031192,-5.47091 25.851252,-18.64354 31.75,-36.15625 -1.546738,0.78032 -3.101524,1.55625 -4.75,2.15625 -2.178901,0.79305 -4.383692,1.34958 -6.59375,1.6875 -2.210058,0.33792 -4.420349,0.46311 -6.65625,0.375 -2.235901,-0.0881 -4.493571,-0.38996 -6.75,-0.875 -2.2564289,-0.48504 -4.5096079,-1.14714 -6.78125,-2 -2.2716421,-0.85286 -4.5622095,-1.90217 -6.84375,-3.09375 -2.2815405,-1.19158 -4.557626,-2.53005 -6.84375,-4.03125 -2.286124,-1.5012 -4.589607,-3.1558 -6.875,-4.9375 -2.285393,-1.7817 -4.564403,-3.68564 -6.84375,-5.71875 -4.558694,-4.06621 -9.091128,-8.63405 -13.59375,-13.53125 -4.502622,-4.8972 -8.970968,-10.12965 -13.375,-15.625 -4.404032,-5.49535 -8.737077,-11.23309 -13,-17.09375 -4.262923,-5.86066 -8.451953,-11.85063 -12.53125,-17.84375 -1.758342,-2.58328 -3.309011,-5.17875 -4.65625,-7.78125 -1.347239,-2.6025 -2.505559,-5.20459 -3.46875,-7.8125 -0.963191,-2.60791 -1.737552,-5.21299 -2.34375,-7.8125 -0.606198,-2.59951 -1.036242,-5.20394 -1.3125,-7.78125 -0.276258,-2.57731 -0.401626,-5.1462 -0.375,-7.6875 0.02663,-2.5413 0.197543,-5.03977 0.5,-7.53125 0.302457,-2.49148 0.761267,-4.9784 1.3125,-7.40625 0.551233,-2.42785 1.195795,-4.80584 1.96875,-7.15625 0.772955,-2.35041 1.657378,-4.64708 2.625,-6.90625 0.528986,-1.23505 1.137838,-2.42041 1.71875,-3.625 z"
         style="fill:#d4aa00;stroke:none" />
      <path
         inkscape:connector-curvature="0"
         id="path3119"
         d="m -82.8125,449.1875 c -0.580912,1.20459 -1.189764,2.38995 -1.71875,3.625 -0.967622,2.25917 -1.852045,4.55584 -2.625,6.90625 -0.772955,2.35041 -1.417517,4.7284 -1.96875,7.15625 -0.551233,2.42785 -1.010043,4.91477 -1.3125,7.40625 -0.302457,2.49148 -0.473374,4.98995 -0.5,7.53125 -0.02663,2.5413 0.09874,5.11019 0.375,7.6875 0.276258,2.57731 0.706302,5.18174 1.3125,7.78125 0.606198,2.59951 1.380559,5.20459 2.34375,7.8125 0.963191,2.60791 2.121511,5.21 3.46875,7.8125 1.347239,2.6025 2.897908,5.19797 4.65625,7.78125 4.079297,5.99312 8.268327,11.98309 12.53125,17.84375 4.262923,5.86066 8.595968,11.5984 13,17.09375 4.404032,5.49535 8.872378,10.7278 13.375,15.625 4.502622,4.8972 9.035056,9.46504 13.59375,13.53125 2.279347,2.03311 4.558357,3.93705 6.84375,5.71875 2.285393,1.7817 4.588876,3.4363 6.875,4.9375 2.286124,1.5012 4.5622095,2.83967 6.84375,4.03125 2.2815405,1.19158 4.5721079,2.24089 6.84375,3.09375 2.2716421,0.85286 4.5248211,1.51496 6.78125,2 2.256429,0.48504 4.514099,0.78689 6.75,0.875 2.235901,0.0881 4.446192,-0.0371 6.65625,-0.375 2.210058,-0.33792 4.414849,-0.89445 6.59375,-1.6875 1.648476,-0.6 3.203262,-1.37593 4.75,-2.15625 7.782443,-23.10518 6.981365,-53.78254 -4.1875,-84.46875 -2.129171,-5.84985 -4.555509,-11.44623 -7.21875,-16.78125 -7.776395,13.33622 -24.5744011,36.34792 -33.5625,25.15625 -27.767308,-34.57489 -61.58767,-23.53623 -68.84375,-64.6875 -0.682144,-3.86863 -1.145869,-7.7154 -1.375,-11.5 -0.09337,0.0732 -0.187849,0.17606 -0.28125,0.25 z"
         style="fill:#f9f9f9;stroke:none" />
    </g>
    <use
       x="0"
       y="0"
       xlink:href="#g4343"
       id="use4357"
       transform="matrix(0.9844873,-0.17545587,0.17545587,0.9844873,-72.173028,36.533156)"
       width="744.09448"
       height="1052.3622" />
    <path
       transform="matrix(-0.77929006,0.59063118,-0.59063118,-0.77929006,772.81234,1152.2708)"
       d="m 254.55844,783.66162 a 86.974136,145.664 0 1 1 -173.948272,0 86.974136,145.664 0 1 1 173.948272,0 z"
       sodipodi:ry="145.664"
       sodipodi:rx="86.974136"
       sodipodi:cy="783.66162"
       sodipodi:cx="167.5843"
       id="path4571"
       style="fill:#d4aa00;stroke:none"
       sodipodi:type="arc" />
    <path
       transform="matrix(-0.7242259,0.65698936,-0.92752777,-1.0224513,762.64823,1347.5759)"
       d="m 384.66609,851.54388 a 173.94827,21.213203 0 1 1 -347.896543,0 173.94827,21.213203 0 1 1 347.896543,0 z"
       sodipodi:ry="21.213203"
       sodipodi:rx="173.94827"
       sodipodi:cy="851.54388"
       sodipodi:cx="210.71782"
       id="path4573"
       style="fill:#d4aa00;stroke:none"
       sodipodi:type="arc" />
    <use
       style="display:inline"
       x="0"
       y="0"
       xlink:href="#path2991"
       id="use4364"
       transform="matrix(0.98421154,0.17699617,-0.17699617,0.98421154,162.13313,-145.58159)"
       width="744.09448"
       height="1052.3622" />
  </g>
  <g
     inkscape:groupmode="layer"
     id="layer4"
     inkscape:label="body">
    <g
       id="g4343"
       transform="matrix(0.48551026,-0.84877438,0.84877438,0.48551026,-334.7665,878.32625)">
      <g
         style="fill:#d4aa00"
         id="g4325">
        <path
           sodipodi:type="arc"
           style="fill:#d4aa00;stroke:none"
           id="path3023"
           sodipodi:cx="515.48083"
           sodipodi:cy="685.37378"
           sodipodi:rx="44.547726"
           sodipodi:ry="89.802559"
           d="m 560.02856,685.37378 c 0,49.59658 -19.9447,89.80256 -44.54773,89.80256 -24.60302,0 -44.54772,-40.20598 -44.54772,-89.80256 0,-49.59658 19.9447,-89.80256 44.54772,-89.80256 24.60303,0 44.54773,40.20598 44.54773,89.80256 z" />
        <path
           sodipodi:type="arc"
           style="fill:#d4aa00;stroke:none"
           id="path3025"
           sodipodi:cx="516.18793"
           sodipodi:cy="767.39813"
           sodipodi:rx="45.254833"
           sodipodi:ry="82.731491"
           d="m 561.44276,767.39813 c 0,45.69134 -20.26128,82.73149 -45.25483,82.73149 -24.99356,0 -45.25484,-37.04015 -45.25484,-82.73149 0,-45.69134 20.26128,-82.73149 45.25484,-82.73149 24.99355,0 45.25483,37.04015 45.25483,82.73149 z" />
      </g>
      <path
         d="m 593.96967,829.62354 c 0,12.10625 -24.06027,21.92031 -53.74012,21.92031 -29.67984,0 -53.74011,-9.81406 -53.74011,-21.92031 0,-12.10626 24.06027,-21.92032 53.74011,-21.92032 29.67985,0 53.74012,9.81406 53.74012,21.92032 z"
         sodipodi:ry="21.920311"
         sodipodi:rx="53.740116"
         sodipodi:cy="829.62354"
         sodipodi:cx="540.22955"
         id="path3027"
         style="fill:#d4aa00;stroke:none"
         sodipodi:type="arc" />
    </g>
  </g>
  <g
     inkscape:groupmode="layer"
     id="layer5"
     inkscape:label="right leg">
    <g
       id="g4374"
       transform="matrix(0.91213897,0.35233603,-0.35233603,0.91213897,307.19602,-9.0073761)">
      <g
         style="fill:#d4aa00"
         id="g4333">
        <path
           sodipodi:type="arc"
           style="fill:#d4aa00;stroke:none"
           id="path3010"
           sodipodi:cx="428.50671"
           sodipodi:cy="471.12042"
           sodipodi:rx="140.00714"
           sodipodi:ry="166.8772"
           d="m 568.51385,471.12042 c 0,92.16373 -62.68333,166.8772 -140.00714,166.8772 -77.32381,0 -140.00714,-74.71347 -140.00714,-166.8772 0,-92.16373 62.68333,-166.87719 140.00714,-166.87719 77.32381,0 140.00714,74.71346 140.00714,166.87719 z"
           transform="matrix(1,0,0,1.1538454,0,-46.806407)" />
        <path
           sodipodi:type="arc"
           style="fill:#d4aa00;stroke:none"
           id="path3014"
           sodipodi:cx="212.83914"
           sodipodi:cy="524.86053"
           sodipodi:rx="289.20667"
           sodipodi:ry="196.57568"
           d="m 502.04581,524.86053 c 0,108.56576 -129.48224,196.57569 -289.20667,196.57569 -159.724429,0 -289.206663,-88.00993 -289.206663,-196.57569 0,-108.56575 129.482234,-196.57568 289.206663,-196.57568 159.72443,0 289.20667,88.00993 289.20667,196.57568 z"
           transform="matrix(0.93969262,-0.34202015,0.34202015,0.93969262,-159.60603,141.21779)" />
      </g>
      <path
         transform="matrix(0.98480775,-0.17364818,0.17364818,0.98480775,-115.82626,31.290914)"
         d="m 299.81327,677.59558 c 0,60.92178 -80.09537,110.30865 -178.89801,110.30865 -98.802643,0 -178.89801,-49.38687 -178.89801,-110.30865 0,-60.92178 80.095367,-110.30865 178.89801,-110.30865 98.80264,0 178.89801,49.38687 178.89801,110.30865 z"
         sodipodi:ry="110.30865"
         sodipodi:rx="178.89801"
         sodipodi:cy="677.59558"
         sodipodi:cx="120.91526"
         id="path3017"
         style="fill:#d4aa00;stroke:none"
         sodipodi:type="arc" />
    </g>
    <path
       sodipodi:type="arc"
       style="fill:#d4aa00;stroke:none"
       id="path3019"
       sodipodi:cx="167.5843"
       sodipodi:cy="783.66162"
       sodipodi:rx="86.974136"
       sodipodi:ry="145.664"
       d="m 254.55844,783.66162 a 86.974136,145.664 0 1 1 -173.948272,0 86.974136,145.664 0 1 1 173.948272,0 z"
       transform="matrix(-0.77929006,0.59063118,-0.59063118,-0.77929006,612.70191,1130.0025)" />
    <path
       sodipodi:type="arc"
       style="fill:#d4aa00;stroke:none"
       id="path3021"
       sodipodi:cx="210.71782"
       sodipodi:cy="851.54388"
       sodipodi:rx="173.94827"
       sodipodi:ry="21.213203"
       d="m 384.66609,851.54388 a 173.94827,21.213203 0 1 1 -347.896543,0 173.94827,21.213203 0 1 1 347.896543,0 z"
       transform="matrix(-0.62373385,0.75305661,-1.063154,-0.88057814,914.85407,1246.2533)" />
  </g>
  <g
     inkscape:label="left ear"
     id="g2993"
     inkscape:groupmode="layer"
     style="display:inline" />
  <g
     inkscape:label="head"
     inkscape:groupmode="layer"
     id="layer1">
    <path
       style="fill:#d4aa00;fill-rule:evenodd;stroke:none"
       d="M 666.88797,324.31498 C 604.55079,300.23572 540.7619,315.09732 524.388,357.4866 c -3.58179,9.27265 -4.60695,19.09716 -3.35469,29.03754 -1.25926,2.471 -2.39077,5.00205 -3.40493,7.62753 -20.91455,54.14429 19.59268,120.25367 90.47894,147.63523 70.88627,27.38156 145.31663,5.66964 166.23118,-48.47465 14.41273,-37.31213 -0.36348,-80.29215 -34.12998,-112.37301 -14.77082,-23.09635 -40.59211,-43.9821 -73.32055,-56.62426 z"
       id="path2985"
       inkscape:connector-curvature="0" />
  </g>
  <g
     inkscape:groupmode="layer"
     id="layer2"
     inkscape:label="right ear">
    <path
       style="fill:#d4aa00;fill-rule:evenodd;stroke:none"
       d="m 380.07571,218.88847 c -48.63428,-9.86836 -87.75184,-3.19467 -99.76954,20.77541 -15.64466,31.20423 -7.25057,72.10469 54.46643,111.75613 38.32923,21.28601 118.70099,11.80575 175.32454,40.19471 11.94052,5.98653 26.86807,9.19757 37.22708,11.93431 9.29549,-1.04381 24.00846,-3.86005 29.66443,-15.14122 18.3127,-36.52582 -33.26094,-99.42936 -115.18805,-140.50458 -28.16244,-14.11964 -56.24981,-23.84557 -81.7249,-29.01472 z"
       id="path2991"
       inkscape:connector-curvature="0"
       sodipodi:nodetypes="sscscsss" />
  </g>
  <g
     inkscape:groupmode="layer"
     id="layer3"
     inkscape:label="eye"
     style="display:inline">
    <path
       sodipodi:type="arc"
       style="fill:#000000;stroke:none"
       id="path2998"
       sodipodi:cx="498.51028"
       sodipodi:cy="264.64523"
       sodipodi:rx="26.162951"
       sodipodi:ry="24.04163"
       d="m 524.67323,264.64523 a 26.162951,24.04163 0 1 1 -52.3259,0 26.162951,24.04163 0 1 1 52.3259,0 z"
       transform="matrix(0.6566371,0.69019252,-0.62449413,0.40635823,499.93211,-57.041485)" />
    <path
       style="fill:#000000;stroke:none"
       d="m 776.71364,446.79696 c -13.03953,-5.03683 -27.78607,1.61998 -33.16201,14.87039 2.26559,0.23253 4.56051,0.77888 6.8008,1.64425 12.82364,4.95345 19.41372,18.77116 14.73546,30.88238 -0.41918,1.0852 -0.8972,2.12371 -1.46121,3.1044 11.48753,1.47506 23.03717,-5.19555 27.50456,-16.76088 5.22864,-13.53607 -1.23775,-28.6495 -14.4176,-33.74054 z"
       id="path3000"
       inkscape:connector-curvature="0" />
  </g>
</svg>
