<?xml version="1.0" encoding="UTF-8" standalone="no"?>
<!-- Created with Inkscape (http://www.inkscape.org/) -->

<svg
   xmlns:dc="http://purl.org/dc/elements/1.1/"
   xmlns:cc="http://creativecommons.org/ns#"
   xmlns:rdf="http://www.w3.org/1999/02/22-rdf-syntax-ns#"
   xmlns:svg="http://www.w3.org/2000/svg"
   xmlns="http://www.w3.org/2000/svg"
   xmlns:sodipodi="http://sodipodi.sourceforge.net/DTD/sodipodi-0.dtd"
   xmlns:inkscape="http://www.inkscape.org/namespaces/inkscape"
   width="1100"
   height="800"
   id="svg4674"
   version="1.1"
   inkscape:version="0.48.2 r9819"
   sodipodi:docname="fox_standing.svg">
  <defs
     id="defs4676" />
  <sodipodi:namedview
     id="base"
     pagecolor="#ffffff"
     bordercolor="#666666"
     borderopacity="1.0"
     inkscape:pageopacity="0.0"
     inkscape:pageshadow="2"
     inkscape:zoom="0.75562114"
     inkscape:cx="540.88332"
     inkscape:cy="310.03102"
     inkscape:document-units="px"
     inkscape:current-layer="layer1"
     showgrid="false"
     inkscape:window-width="1440"
     inkscape:window-height="852"
     inkscape:window-x="0"
     inkscape:window-y="0"
     inkscape:window-maximized="1" />
  <metadata
     id="metadata4679">
    <rdf:RDF>
      <cc:Work
         rdf:about="">
        <dc:format>image/svg+xml</dc:format>
        <dc:type
           rdf:resource="http://purl.org/dc/dcmitype/StillImage" />
        <dc:title></dc:title>
      </cc:Work>
    </rdf:RDF>
  </metadata>
  <g
     inkscape:label="Layer 1"
     inkscape:groupmode="layer"
     id="layer1"
     transform="translate(0,-252.36218)">
    <path
       sodipodi:type="arc"
       style="fill:#ff6600;stroke:none"
       id="path4694"
       sodipodi:cx="327.5451"
       sodipodi:cy="381.13931"
       sodipodi:rx="85.360237"
       sodipodi:ry="107.85828"
       d="m 412.90534,381.13931 a 85.360237,107.85828 0 1 1 -170.72047,0 85.360237,107.85828 0 1 1 170.72047,0 z"
       transform="matrix(0.64124516,-0.50945205,0.48017994,0.82896763,-78.741207,502.28396)" />
    <g
       id="g4929"
       transform="translate(-34,-20)">
      <path
         sodipodi:type="arc"
         style="fill:#ff6600;stroke:none"
         id="path4931"
         sodipodi:cx="631.26874"
         sodipodi:cy="475.76343"
         sodipodi:rx="43.67268"
         sodipodi:ry="74.111214"
         d="m 674.94142,475.76343 c 0,40.93049 -19.55293,74.11121 -43.67268,74.11121 -24.11976,0 -43.67268,-33.18072 -43.67268,-74.11121 0,-40.9305 19.55292,-74.11122 43.67268,-74.11122 24.11975,0 43.67268,33.18072 43.67268,74.11122 z"
         transform="matrix(1.1047333,0.26565991,-0.29293348,1.0018771,57.371211,59.944885)" />
      <path
         sodipodi:type="arc"
         style="fill:#ff6600;stroke:none"
         id="path4933"
         sodipodi:cx="607.44727"
         sodipodi:cy="543.91931"
         sodipodi:rx="39.702435"
         sodipodi:ry="56.245117"
         d="m 647.1497,543.91931 c 0,31.06332 -17.77539,56.24512 -39.70243,56.24512 -21.92705,0 -39.70244,-25.1818 -39.70244,-56.24512 0,-31.06332 17.77539,-56.24512 39.70244,-56.24512 21.92704,0 39.70243,25.1818 39.70243,56.24512 z"
         transform="matrix(0.88629342,-0.46312414,0.46312414,0.88629342,-176.21434,557.15385)" />
      <path
         sodipodi:type="arc"
         style="fill:#ff6600;stroke:none"
         id="path4935"
         sodipodi:cx="633.91559"
         sodipodi:cy="586.93024"
         sodipodi:rx="17.20439"
         sodipodi:ry="44.996094"
         d="m 651.11998,586.93024 c 0,24.85065 -7.70267,44.99609 -17.20439,44.99609 -9.50172,0 -17.20439,-20.14544 -17.20439,-44.99609 0,-24.85066 7.70267,-44.9961 17.20439,-44.9961 9.50172,0 17.20439,20.14544 17.20439,44.9961 z"
         transform="matrix(1.2192481,-0.46990697,0.64905722,0.88271595,-516.62754,591.28939)" />
      <path
         sodipodi:type="arc"
         style="fill:#ff6600;stroke:none"
         id="path4937"
         sodipodi:cx="648.47314"
         sodipodi:cy="646.48389"
         sodipodi:rx="18.527803"
         sodipodi:ry="47.642921"
         d="m 667.00095,646.48389 c 0,26.31246 -8.29518,47.64292 -18.52781,47.64292 -10.23262,0 -18.5278,-21.33046 -18.5278,-47.64292 0,-26.31246 8.29518,-47.64292 18.5278,-47.64292 10.23263,0 18.52781,21.33046 18.52781,47.64292 z"
         transform="matrix(0.9326792,0.36070695,-0.36070695,0.9326792,278.17037,34.183506)" />
    </g>
    <path
       inkscape:connector-curvature="0"
       style="fill:#ff6600;stroke:none"
       d="m 544.78125,591.61218 c -3.51494,0.0239 -7.04908,0.10459 -10.625,0.28125 -18.28811,0.90347 -35.64115,3.78464 -51.4375,8.1875 -22.63672,-2.4723 -48.22938,-1.425 -74.78125,3.78125 -79.25545,15.54028 -136.85221,62.13499 -128.625,104.09375 8.22721,41.95876 79.1508,63.38403 158.40625,47.84375 16.48176,-3.23172 32.00866,-7.80833 46.21875,-13.40625 17.73436,3.63125 37.31639,5.17035 57.84375,4.15625 76.28619,-3.7687 136.42225,-41.41934 134.3125,-84.125 -2.01086,-40.70384 -59.84207,-71.29798 -131.3125,-70.8125 z"
       id="path4696" />
    <path
       inkscape:connector-curvature="0"
       style="fill:#b3b3b3;stroke:none"
       d="m 675,654.64343 c -8.58671,37.44499 -64.31552,68.50228 -133.21875,71.90625 -20.52736,1.0141 -40.10939,-0.525 -57.84375,-4.15625 -14.21009,5.59792 -29.73699,10.17453 -46.21875,13.40625 -78.1354,15.32066 -148.15274,-5.30335 -158,-46.09375 -1.40156,6.1093 -1.58739,12.2262 -0.40625,18.25 8.22721,41.95876 79.1508,63.38403 158.40625,47.84375 16.48176,-3.23172 32.00866,-7.80833 46.21875,-13.40625 17.73436,3.63125 37.31639,5.17035 57.84375,4.15625 76.28619,-3.7687 136.42225,-41.41934 134.3125,-84.125 -0.13046,-2.64068 -0.50494,-5.2314 -1.09375,-7.78125 z"
       id="path4780" />
    <path
       sodipodi:type="arc"
       style="fill:#ff6600;stroke:none"
       id="path4709"
       sodipodi:cx="725.23114"
       sodipodi:cy="411.57785"
       sodipodi:rx="75.434631"
       sodipodi:ry="45.657803"
       d="m 800.66577,411.57785 a 75.434631,45.657803 0 1 1 -150.86926,0 75.434631,45.657803 0 1 1 150.86926,0 z"
       transform="matrix(0.9876117,0.15691757,-0.15691757,0.9876117,56.363785,133.0721)" />
    <path
       inkscape:connector-curvature="0"
       style="fill:#ff6600;stroke:none"
       d="m 845.40625,626.42468 c -10.97239,-3.38871 -23.39816,-5.5 -36.8125,-5.5 -42.3923,0 -76.75,19.2457 -76.75,43 0,23.7543 34.3577,43.03125 76.75,43.03125 13.92088,0 26.8054,-2.24455 38.0625,-5.875 -2.30045,-1.53435 -4.51515,-3.18494 -6.5,-5.0625 -2.21529,-2.09555 -4.20883,-4.37954 -5.96875,-6.84375 -1.75992,-2.46421 -3.29233,-5.10421 -4.53125,-7.875 -1.23892,-2.77079 -2.19147,-5.67221 -2.84375,-8.6875 -0.32614,-1.50764 -0.58283,-3.03662 -0.75,-4.59375 -0.16717,-1.55713 -0.25,-3.15115 -0.25,-4.75 0,-1.59885 0.0828,-3.16162 0.25,-4.71875 0.16717,-1.55713 0.42386,-3.08611 0.75,-4.59375 0.65228,-3.01529 1.60483,-5.94796 2.84375,-8.71875 1.23892,-2.77079 2.77133,-5.37954 4.53125,-7.84375 1.75992,-2.46421 3.75346,-4.77945 5.96875,-6.875 1.60386,-1.51716 3.43711,-2.79788 5.25,-4.09375 z"
       id="path4747" />
    <path
       inkscape:connector-curvature="0"
       style="fill:#b3b3b3;stroke:none"
       d="m 845.40625,626.42468 c -1.81289,1.29587 -3.64614,2.57659 -5.25,4.09375 -2.21529,2.09555 -4.20883,4.41079 -5.96875,6.875 -1.75992,2.46421 -3.29233,5.07296 -4.53125,7.84375 -1.23892,2.77079 -2.19147,5.70346 -2.84375,8.71875 -0.32614,1.50764 -0.58283,3.03662 -0.75,4.59375 -0.16717,1.55713 -0.25,3.1199 -0.25,4.71875 0,1.59885 0.0828,3.19287 0.25,4.75 0.16717,1.55713 0.42386,3.08611 0.75,4.59375 0.65228,3.01529 1.60483,5.91671 2.84375,8.6875 1.23892,2.77079 2.77133,5.41079 4.53125,7.875 1.75992,2.46421 3.75346,4.7482 5.96875,6.84375 1.98485,1.87756 4.19955,3.52815 6.5,5.0625 23.02336,-7.42511 38.71875,-21.20244 38.71875,-37.15625 0,-16.23765 -16.26593,-30.17963 -39.96875,-37.5 z"
       id="path4711" />
    <path
       style="fill:#b3b3b3;stroke:none"
       d="M 279.9375 300.96875 C 273.72184 302.51809 267.86143 305.35906 262.53125 309.59375 C 232.30093 333.61093 230.95891 393.11966 259.5625 442.5 C 288.16609 491.88034 335.86343 512.42343 366.09375 488.40625 C 367.38414 487.38107 368.62754 486.30719 369.8125 485.15625 C 340.78088 492.37102 304.30174 471.25274 280.75 430.59375 C 253.37826 383.34004 253.39387 326.7953 279.9375 300.96875 z "
       transform="translate(0,252.36218)"
       id="path4794" />
    <path
       style="fill:#ff6600;stroke:none"
       d="M 271.3125 272.0625 C 256.70018 272.0625 243.92416 278.75735 237.03125 288.75 C 231.97196 289.79303 227.08237 291.07186 222.375 292.5625 C 224.05801 297.38439 224.96875 302.44357 224.96875 307.6875 C 224.96875 335.58808 199.51969 358.79654 165.9375 363.65625 C 176.44004 389.29479 216.78187 404.55569 262.1875 398.5 C 312.53933 391.78464 350.04401 361.38444 345.9375 330.59375 C 343.65068 313.44716 328.9378 299.82 307.65625 292.25 C 301.51668 280.35717 287.57087 272.0625 271.3125 272.0625 z "
       transform="translate(0,252.36218)"
       id="path4704" />
    <g
       id="g4806">
      <path
         inkscape:connector-curvature="0"
         id="path4717"
         d="m 222.98047,549.46466 -11.91073,-62.20048 c 0,0 43.67268,26.46829 48.96634,54.25999 5.29366,27.79171 -37.05561,7.94049 -37.05561,7.94049 z"
         style="fill:#ff6600;stroke:none" />
      <path
         id="path4803"
         transform="translate(0,252.36218)"
         d="M 211.0625 234.90625 L 214.71875 254.0625 C 223.20162 255.66904 232.56314 264.76966 238.03125 277.75 C 241.89044 286.91105 243.01132 296.09815 241.65625 303.25 C 252.23338 305.25 262.84082 303.90651 260.03125 289.15625 C 254.73759 261.36455 211.0625 234.90625 211.0625 234.90625 z "
         style="fill:#d45500;stroke:none" />
    </g>
    <path
       sodipodi:type="arc"
       style="fill:#000000;stroke:none"
       id="path4844"
       sodipodi:cx="236.22949"
       sodipodi:cy="340.11346"
       sodipodi:rx="8.6021948"
       sodipodi:ry="8.6021948"
       d="m 244.83169,340.11346 a 8.6021948,8.6021948 0 1 1 -17.20439,0 8.6021948,8.6021948 0 1 1 17.20439,0 z"
       transform="translate(0,252.36218)" />
    <path
       style="fill:#b3b3b3;stroke:none"
       d="M 220.34375 355.34375 C 201.39266 355.34375 185.15707 365.55873 178.25 380.09375 C 196.01703 395.36251 227.62437 403.10964 262.1875 398.5 C 263.4469 398.33204 264.69463 398.13473 265.9375 397.9375 C 265.98317 397.19767 266 396.43741 266 395.6875 C 266 373.395 245.55986 355.34375 220.34375 355.34375 z "
       transform="translate(0,252.36218)"
       id="path4848" />
    <path
       sodipodi:type="arc"
       style="fill:#000000;stroke:none"
       id="path4842"
       sodipodi:cx="176.01413"
       sodipodi:cy="365.92004"
       sodipodi:rx="13.234145"
       sodipodi:ry="13.234145"
       d="m 189.24827,365.92004 a 13.234145,13.234145 0 1 1 -26.46829,0 13.234145,13.234145 0 1 1 26.46829,0 z"
       transform="translate(0,252.36218)" />
    <path
       sodipodi:type="arc"
       style="fill:#ff6600;stroke:none"
       id="path4872"
       sodipodi:cx="389.08386"
       sodipodi:cy="569.72589"
       sodipodi:rx="26.46829"
       sodipodi:ry="47.642921"
       d="m 415.55215,569.72589 a 26.46829,47.642921 0 1 1 -52.93658,0 26.46829,47.642921 0 1 1 52.93658,0 z"
       transform="matrix(0.99636986,-0.38043121,0.2987001,1.338707,-153.9558,186.08733)" />
    <path
       sodipodi:type="arc"
       style="fill:#ff6600;stroke:none"
       id="path4874"
       sodipodi:cx="404.96484"
       sodipodi:cy="585.60687"
       sodipodi:rx="23.821461"
       sodipodi:ry="43.67268"
       d="m 428.7863,585.60687 a 23.821461,43.67268 0 1 1 -47.64292,0 23.821461,43.67268 0 1 1 47.64292,0 z"
       transform="matrix(0.81471515,-0.31057726,0.20860114,1.3565338,-28.046365,203.51193)" />
    <path
       sodipodi:type="arc"
       style="fill:#280b0b;stroke:none"
       id="path4876"
       sodipodi:cx="403.64142"
       sodipodi:cy="637.22003"
       sodipodi:rx="25.144876"
       sodipodi:ry="9.2639017"
       d="m 428.78629,637.22003 a 25.144876,9.2639017 0 1 1 -50.28975,0 25.144876,9.2639017 0 1 1 50.28975,0 z"
       transform="matrix(0.73235083,-0.17671503,0.14234025,0.98462647,38.872572,367.8421)" />
    <path
       sodipodi:type="arc"
       style="fill:#ff6600;stroke:none"
       id="path4892"
       sodipodi:cx="334.82388"
       sodipodi:cy="518.11273"
       sodipodi:rx="29.11512"
       sodipodi:ry="37.055607"
       d="m 363.939,518.11273 a 29.11512,37.055607 0 1 1 -58.23024,0 29.11512,37.055607 0 1 1 58.23024,0 z"
       transform="matrix(0.96979983,0.04709291,0.04886469,1.3156404,-6.4723723,71.634499)" />
    <path
       sodipodi:type="arc"
       style="fill:#ff6600;stroke:none"
       id="path4894"
       sodipodi:cx="336.80899"
       sodipodi:cy="558.47687"
       sodipodi:rx="20.512926"
       sodipodi:ry="33.74707"
       d="m 357.32192,558.47687 a 20.512926,33.74707 0 1 1 -41.02586,0 20.512926,33.74707 0 1 1 41.02586,0 z"
       transform="matrix(0.96979983,0.04709291,0.04886469,1.3156404,-6.4723723,71.634499)" />
    <path
       sodipodi:type="arc"
       style="fill:#ff6600;stroke:none"
       id="path4896"
       sodipodi:cx="339.45584"
       sodipodi:cy="600.16443"
       sodipodi:rx="16.542681"
       sodipodi:ry="23.821461"
       d="m 355.99852,600.16443 a 16.542681,23.821461 0 1 1 -33.08536,0 16.542681,23.821461 0 1 1 33.08536,0 z"
       transform="matrix(0.96979983,0.04709291,0.04886469,1.3156404,-6.4723723,71.634499)" />
    <path
       sodipodi:type="arc"
       style="fill:#280b0b;stroke:none"
       id="path4898"
       sodipodi:cx="327.5451"
       sodipodi:cy="621.33905"
       sodipodi:rx="21.83634"
       sodipodi:ry="9.2639017"
       d="m 349.38144,621.33905 a 21.83634,9.2639017 0 1 1 -43.67267,0 21.83634,9.2639017 0 1 1 43.67267,0 z"
       transform="matrix(0.69713611,0.03180752,0.03512616,0.88861056,97.328947,338.00122)" />
    <path
       style="fill:#ff6600;stroke:none"
       d="m 286.05278,724.96536 c 3.45133,5.44672 7.36885,10.83019 11.77152,16.01632 33.12778,39.02294 80.2857,53.40063 105.35947,32.11472 25.07379,-21.28592 18.56444,-70.17144 -14.56335,-109.19438 -4.40266,-5.18613 -9.07881,-9.92558 -13.89303,-14.21528 l -88.67461,75.27862 z"
       id="path4867"
       inkscape:connector-curvature="0" />
    <path
       inkscape:connector-curvature="0"
       style="fill:#b3b3b3;stroke:none"
       d="m 302.84375,710.70593 -16.78125,14.25 c 3.45133,5.44672 7.34733,10.84512 11.75,16.03125 8.7743,10.3357 18.55324,18.9206 28.625,25.59375 0.80221,-8.85661 -0.73803,-19.25131 -4.875,-29.59375 -4.51508,-11.28771 -11.30163,-20.43588 -18.71875,-26.28125 z"
       id="path4883" />
    <g
       id="g4923">
      <path
         transform="matrix(1.1047333,0.26565991,-0.29293348,1.0018771,57.371211,59.944885)"
         d="m 674.94142,475.76343 a 43.67268,74.111214 0 1 1 -87.34536,0 43.67268,74.111214 0 1 1 87.34536,0 z"
         sodipodi:ry="74.111214"
         sodipodi:rx="43.67268"
         sodipodi:cy="475.76343"
         sodipodi:cx="631.26874"
         id="path4913"
         style="fill:#ff6600;stroke:none"
         sodipodi:type="arc" />
      <path
         transform="matrix(0.88629342,-0.46312414,0.46312414,0.88629342,-176.21434,557.15385)"
         d="m 647.1497,543.91931 a 39.702435,56.245117 0 1 1 -79.40487,0 39.702435,56.245117 0 1 1 79.40487,0 z"
         sodipodi:ry="56.245117"
         sodipodi:rx="39.702435"
         sodipodi:cy="543.91931"
         sodipodi:cx="607.44727"
         id="path4915"
         style="fill:#ff6600;stroke:none"
         sodipodi:type="arc" />
      <path
         transform="matrix(1.2192481,-0.46990697,0.64905722,0.88271595,-516.62754,591.28939)"
         d="m 651.11998,586.93024 a 17.20439,44.996094 0 1 1 -34.40878,0 17.20439,44.996094 0 1 1 34.40878,0 z"
         sodipodi:ry="44.996094"
         sodipodi:rx="17.20439"
         sodipodi:cy="586.93024"
         sodipodi:cx="633.91559"
         id="path4917"
         style="fill:#ff6600;stroke:none"
         sodipodi:type="arc" />
      <path
         transform="matrix(0.9326792,0.36070695,-0.36070695,0.9326792,278.17037,34.183506)"
         d="m 667.00095,646.48389 a 18.527803,47.642921 0 1 1 -37.05561,0 18.527803,47.642921 0 1 1 37.05561,0 z"
         sodipodi:ry="47.642921"
         sodipodi:rx="18.527803"
         sodipodi:cy="646.48389"
         sodipodi:cx="648.47314"
         id="path4919"
         style="fill:#ff6600;stroke:none"
         sodipodi:type="arc" />
    </g>
    <path
       sodipodi:type="arc"
       style="fill:#000000;stroke:none"
       id="path4921"
       sodipodi:cx="631.26874"
       sodipodi:cy="661.70319"
       sodipodi:rx="17.20439"
       sodipodi:ry="7.27878"
       d="m 648.47313,661.70319 a 17.20439,7.27878 0 1 1 -34.40878,0 17.20439,7.27878 0 1 1 34.40878,0 z"
       transform="matrix(1.1923077,0,0,1.3636364,-124.70637,9.0960129)" />
    <path
       transform="matrix(1.0769231,0,0,1.0909091,-84.291331,167.72418)"
       d="m 648.47313,661.70319 a 17.20439,7.27878 0 1 1 -34.40878,0 17.20439,7.27878 0 1 1 34.40878,0 z"
       sodipodi:ry="7.27878"
       sodipodi:rx="17.20439"
       sodipodi:cy="661.70319"
       sodipodi:cx="631.26874"
       id="path4939"
       style="fill:#000000;stroke:none"
       sodipodi:type="arc" />
  </g>
</svg>
