<?xml version="1.0" encoding="UTF-8" standalone="no"?>
<!-- Created with Inkscape (http://www.inkscape.org/) -->

<svg
   xmlns:dc="http://purl.org/dc/elements/1.1/"
   xmlns:cc="http://creativecommons.org/ns#"
   xmlns:rdf="http://www.w3.org/1999/02/22-rdf-syntax-ns#"
   xmlns:svg="http://www.w3.org/2000/svg"
   xmlns="http://www.w3.org/2000/svg"
   xmlns:xlink="http://www.w3.org/1999/xlink"
   xmlns:sodipodi="http://sodipodi.sourceforge.net/DTD/sodipodi-0.dtd"
   xmlns:inkscape="http://www.inkscape.org/namespaces/inkscape"
   width="500"
   height="500"
   id="svg6639"
   version="1.1"
   inkscape:version="0.48.2 r9819"
   sodipodi:docname="icon.svg"
   inkscape:export-filename="/Users/jamiely/Documents/code/BunnyMatcher/BunnyMatcher/Assets/inkscape/icon144.png"
   inkscape:export-xdpi="25.92"
   inkscape:export-ydpi="25.92">
  <defs
     id="defs6641" />
  <sodipodi:namedview
     id="base"
     pagecolor="#ffffff"
     bordercolor="#666666"
     borderopacity="1.0"
     inkscape:pageopacity="0.0"
     inkscape:pageshadow="2"
     inkscape:zoom="0.35"
     inkscape:cx="375"
     inkscape:cy="177.14286"
     inkscape:document-units="px"
     inkscape:current-layer="layer1"
     showgrid="false"
     inkscape:window-width="781"
     inkscape:window-height="522"
     inkscape:window-x="117"
     inkscape:window-y="217"
     inkscape:window-maximized="0" />
  <metadata
     id="metadata6644">
    <rdf:RDF>
      <cc:Work
         rdf:about="">
        <dc:format>image/svg+xml</dc:format>
        <dc:type
           rdf:resource="http://purl.org/dc/dcmitype/StillImage" />
        <dc:title></dc:title>
      </cc:Work>
    </rdf:RDF>
  </metadata>
  <g
     inkscape:label="Layer 1"
     inkscape:groupmode="layer"
     id="layer1"
     transform="translate(0,-552.36218)">
    <rect
       style="fill:#008000;stroke:none"
       id="rect5737"
       width="500"
       height="500"
       x="0"
       y="552.36218" />
    <g
       id="g6472"
       transform="matrix(0.61662934,0.08782828,-0.08782828,0.61662934,245.42937,304.18199)"
       clip-path="none">
      <g
         transform="matrix(0.97782318,0,0,0.97782318,-128.06801,328.46597)"
         id="g4353"
         style="display:inline">
        <path
           style="fill:#d4aa00;stroke:none"
           d="m -82.8125,449.1875 c -25.07801,19.85195 -50.99783,64.3209 -22.96875,105.5 32.634373,47.945 71.825086,95.37638 106.6875,82.6875 15.031192,-5.47091 25.851252,-18.64354 31.75,-36.15625 -1.546738,0.78032 -3.101524,1.55625 -4.75,2.15625 -2.178901,0.79305 -4.383692,1.34958 -6.59375,1.6875 -2.210058,0.33792 -4.420349,0.46311 -6.65625,0.375 -2.235901,-0.0881 -4.493571,-0.38996 -6.75,-0.875 -2.2564289,-0.48504 -4.5096079,-1.14714 -6.78125,-2 -2.2716421,-0.85286 -4.5622095,-1.90217 -6.84375,-3.09375 -2.2815405,-1.19158 -4.557626,-2.53005 -6.84375,-4.03125 -2.286124,-1.5012 -4.589607,-3.1558 -6.875,-4.9375 -2.285393,-1.7817 -4.564403,-3.68564 -6.84375,-5.71875 -4.558694,-4.06621 -9.091128,-8.63405 -13.59375,-13.53125 -4.502622,-4.8972 -8.970968,-10.12965 -13.375,-15.625 -4.404032,-5.49535 -8.737077,-11.23309 -13,-17.09375 -4.262923,-5.86066 -8.451953,-11.85063 -12.53125,-17.84375 -1.758342,-2.58328 -3.309011,-5.17875 -4.65625,-7.78125 -1.347239,-2.6025 -2.505559,-5.20459 -3.46875,-7.8125 -0.963191,-2.60791 -1.737552,-5.21299 -2.34375,-7.8125 -0.606198,-2.59951 -1.036242,-5.20394 -1.3125,-7.78125 -0.276258,-2.57731 -0.401626,-5.1462 -0.375,-7.6875 0.02663,-2.5413 0.197543,-5.03977 0.5,-7.53125 0.302457,-2.49148 0.761267,-4.9784 1.3125,-7.40625 0.551233,-2.42785 1.195795,-4.80584 1.96875,-7.15625 0.772955,-2.35041 1.657378,-4.64708 2.625,-6.90625 0.528986,-1.23505 1.137838,-2.42041 1.71875,-3.625 z"
           id="path3239"
           inkscape:connector-curvature="0" />
        <path
           style="fill:#f9f9f9;stroke:none"
           d="m -82.8125,449.1875 c -0.580912,1.20459 -1.189764,2.38995 -1.71875,3.625 -0.967622,2.25917 -1.852045,4.55584 -2.625,6.90625 -0.772955,2.35041 -1.417517,4.7284 -1.96875,7.15625 -0.551233,2.42785 -1.010043,4.91477 -1.3125,7.40625 -0.302457,2.49148 -0.473374,4.98995 -0.5,7.53125 -0.02663,2.5413 0.09874,5.11019 0.375,7.6875 0.276258,2.57731 0.706302,5.18174 1.3125,7.78125 0.606198,2.59951 1.380559,5.20459 2.34375,7.8125 0.963191,2.60791 2.121511,5.21 3.46875,7.8125 1.347239,2.6025 2.897908,5.19797 4.65625,7.78125 4.079297,5.99312 8.268327,11.98309 12.53125,17.84375 4.262923,5.86066 8.595968,11.5984 13,17.09375 4.404032,5.49535 8.872378,10.7278 13.375,15.625 4.502622,4.8972 9.035056,9.46504 13.59375,13.53125 2.279347,2.03311 4.558357,3.93705 6.84375,5.71875 2.285393,1.7817 4.588876,3.4363 6.875,4.9375 2.286124,1.5012 4.5622095,2.83967 6.84375,4.03125 2.2815405,1.19158 4.5721079,2.24089 6.84375,3.09375 2.2716421,0.85286 4.5248211,1.51496 6.78125,2 2.256429,0.48504 4.514099,0.78689 6.75,0.875 2.235901,0.0881 4.446192,-0.0371 6.65625,-0.375 2.210058,-0.33792 4.414849,-0.89445 6.59375,-1.6875 1.648476,-0.6 3.203262,-1.37593 4.75,-2.15625 7.782443,-23.10518 6.981365,-53.78254 -4.1875,-84.46875 -2.129171,-5.84985 -4.555509,-11.44623 -7.21875,-16.78125 -7.776395,13.33622 -24.5744011,36.34792 -33.5625,25.15625 -27.767308,-34.57489 -61.58767,-23.53623 -68.84375,-64.6875 -0.682144,-3.86863 -1.145869,-7.7154 -1.375,-11.5 -0.09337,0.0732 -0.187849,0.17606 -0.28125,0.25 z"
           id="path3119"
           inkscape:connector-curvature="0" />
      </g>
      <use
         height="1052.3622"
         width="744.09448"
         transform="translate(27.379048,-89.95973)"
         id="use4357"
         xlink:href="#g4343"
         y="0"
         x="0"
         style="display:inline" />
      <use
         height="1052.3622"
         width="744.09448"
         transform="translate(-17.600812,-95.826673)"
         id="use4360"
         xlink:href="#g4349"
         y="0"
         x="0"
         style="display:inline" />
      <use
         height="1052.3622"
         width="744.09448"
         transform="translate(46.935518,-46.93551)"
         id="use4364"
         xlink:href="#path2991"
         y="0"
         x="0"
         style="display:inline" />
      <g
         transform="matrix(0.97782318,0,0,0.97782318,-128.06801,328.46597)"
         id="g4343">
        <g
           id="g4325"
           style="fill:#d4aa00">
          <path
             d="m 560.02856,685.37378 c 0,49.59658 -19.9447,89.80256 -44.54773,89.80256 -24.60302,0 -44.54772,-40.20598 -44.54772,-89.80256 0,-49.59658 19.9447,-89.80256 44.54772,-89.80256 24.60303,0 44.54773,40.20598 44.54773,89.80256 z"
             sodipodi:ry="89.802559"
             sodipodi:rx="44.547726"
             sodipodi:cy="685.37378"
             sodipodi:cx="515.48083"
             id="path3023"
             style="fill:#d4aa00;stroke:none"
             sodipodi:type="arc" />
          <path
             d="m 561.44276,767.39813 c 0,45.69134 -20.26128,82.73149 -45.25483,82.73149 -24.99356,0 -45.25484,-37.04015 -45.25484,-82.73149 0,-45.69134 20.26128,-82.73149 45.25484,-82.73149 24.99355,0 45.25483,37.04015 45.25483,82.73149 z"
             sodipodi:ry="82.731491"
             sodipodi:rx="45.254833"
             sodipodi:cy="767.39813"
             sodipodi:cx="516.18793"
             id="path3025"
             style="fill:#d4aa00;stroke:none"
             sodipodi:type="arc" />
        </g>
        <path
           sodipodi:type="arc"
           style="fill:#d4aa00;stroke:none"
           id="path3027"
           sodipodi:cx="540.22955"
           sodipodi:cy="829.62354"
           sodipodi:rx="53.740116"
           sodipodi:ry="21.920311"
           d="m 593.96967,829.62354 c 0,12.10625 -24.06027,21.92031 -53.74012,21.92031 -29.67984,0 -53.74011,-9.81406 -53.74011,-21.92031 0,-12.10626 24.06027,-21.92032 53.74011,-21.92032 29.67985,0 53.74012,9.81406 53.74012,21.92032 z" />
      </g>
      <g
         transform="matrix(0.97782318,0,0,0.97782318,-128.06801,328.46597)"
         id="g4374">
        <g
           id="g4333"
           style="fill:#d4aa00">
          <path
             transform="matrix(1,0,0,1.1538454,0,-46.806407)"
             d="m 568.51385,471.12042 c 0,92.16373 -62.68333,166.8772 -140.00714,166.8772 -77.32381,0 -140.00714,-74.71347 -140.00714,-166.8772 0,-92.16373 62.68333,-166.87719 140.00714,-166.87719 77.32381,0 140.00714,74.71346 140.00714,166.87719 z"
             sodipodi:ry="166.8772"
             sodipodi:rx="140.00714"
             sodipodi:cy="471.12042"
             sodipodi:cx="428.50671"
             id="path3010"
             style="fill:#d4aa00;stroke:none"
             sodipodi:type="arc" />
          <path
             transform="matrix(0.93969262,-0.34202015,0.34202015,0.93969262,-159.60603,141.21779)"
             d="m 502.04581,524.86053 c 0,108.56576 -129.48224,196.57569 -289.20667,196.57569 -159.724429,0 -289.206663,-88.00993 -289.206663,-196.57569 0,-108.56575 129.482234,-196.57568 289.206663,-196.57568 159.72443,0 289.20667,88.00993 289.20667,196.57568 z"
             sodipodi:ry="196.57568"
             sodipodi:rx="289.20667"
             sodipodi:cy="524.86053"
             sodipodi:cx="212.83914"
             id="path3014"
             style="fill:#d4aa00;stroke:none"
             sodipodi:type="arc" />
        </g>
        <path
           sodipodi:type="arc"
           style="fill:#d4aa00;stroke:none"
           id="path3017"
           sodipodi:cx="120.91526"
           sodipodi:cy="677.59558"
           sodipodi:rx="178.89801"
           sodipodi:ry="110.30865"
           d="m 299.81327,677.59558 c 0,60.92178 -80.09537,110.30865 -178.89801,110.30865 -98.802643,0 -178.89801,-49.38687 -178.89801,-110.30865 0,-60.92178 80.095367,-110.30865 178.89801,-110.30865 98.80264,0 178.89801,49.38687 178.89801,110.30865 z"
           transform="matrix(0.98480775,-0.17364818,0.17364818,0.98480775,-115.82626,31.290914)" />
      </g>
      <g
         transform="matrix(0.97782318,0,0,0.97782318,-128.06801,328.46597)"
         id="g4349">
        <path
           sodipodi:type="arc"
           style="fill:#d4aa00;stroke:none"
           id="path3019"
           sodipodi:cx="167.5843"
           sodipodi:cy="783.66162"
           sodipodi:rx="86.974136"
           sodipodi:ry="145.664"
           d="m 254.55844,783.66162 c 0,80.44801 -38.93965,145.664 -86.97414,145.664 -48.03448,0 -86.974132,-65.21599 -86.974132,-145.664 0,-80.44801 38.939652,-145.664 86.974132,-145.664 48.03449,0 86.97414,65.21599 86.97414,145.664 z"
           transform="matrix(0.6427876,0.76604445,-0.76604445,0.6427876,653.11175,119.02971)" />
        <path
           sodipodi:type="arc"
           style="fill:#d4aa00;stroke:none"
           id="path3021"
           sodipodi:cx="210.71782"
           sodipodi:cy="851.54388"
           sodipodi:rx="173.94827"
           sodipodi:ry="21.213203"
           d="m 384.66609,851.54388 c 0,11.71573 -77.87929,21.21321 -173.94827,21.21321 -96.06898,0 -173.948273,-9.49748 -173.948273,-21.21321 0,-11.71572 77.879293,-21.2132 173.948273,-21.2132 96.06898,0 173.94827,9.49748 173.94827,21.2132 z"
           transform="matrix(0.9961947,0.08715574,-0.12304518,1.4064128,108.40864,-361.86521)" />
      </g>
      <path
         inkscape:connector-curvature="0"
         id="path2985"
         d="m 327.56704,509.79106 c -66.82615,0 -120.97506,36.84815 -120.97506,82.28993 0,9.94039 2.58374,19.47434 7.33367,28.29576 -0.28431,2.75876 -0.4278,5.5275 -0.4278,8.34205 0,58.04328 61.60719,105.11599 137.59806,105.11599 75.99087,0 137.59806,-47.07271 137.59806,-105.11599 0,-39.99902 -29.27049,-74.76764 -72.32836,-92.52652 -22.10084,-16.22256 -53.71331,-26.40122 -88.79857,-26.40122 z"
         style="fill:#d4aa00;fill-rule:evenodd;stroke:none" />
      <path
         sodipodi:nodetypes="sscscsss"
         inkscape:connector-curvature="0"
         id="path2991"
         d="m 49.345792,449.65493 c -49.62519988,0.13629 -86.59493,14.55711 -93.5349,40.45744 -9.03445,33.71702 7.4308,72.08634 75.87296,98.48512 41.83281,13.12401 118.644498,-12.36049 179.827798,4.03352 12.90206,3.4571 28.17045,3.59361 38.86847,4.18631 8.89436,-2.89587 22.73779,-8.61969 26.00399,-20.8093 C 286.9593,536.54086 223.76593,485.32277 135.24144,461.60271 104.81115,453.44893 75.339932,449.58354 49.345792,449.65493 z"
         style="fill:#d4aa00;fill-rule:evenodd;stroke:none" />
      <path
         transform="matrix(0.86122317,0.40722555,-0.4361226,0.60408361,34.413252,214.2105)"
         d="m 524.67323,264.64523 c 0,13.27783 -11.71355,24.04163 -26.16295,24.04163 -14.44939,0 -26.16295,-10.7638 -26.16295,-24.04163 0,-13.27782 11.71356,-24.04163 26.16295,-24.04163 14.4494,0 26.16295,10.76381 26.16295,24.04163 z"
         sodipodi:ry="24.04163"
         sodipodi:rx="26.162951"
         sodipodi:cy="264.64523"
         sodipodi:cx="498.51028"
         id="path2998"
         style="fill:#000000;stroke:none;display:inline"
         sodipodi:type="arc" />
      <path
         inkscape:connector-curvature="0"
         id="path3000"
         d="m 474.14885,584.4723 c -13.97852,0 -25.33585,11.52323 -25.57619,25.82065 2.19719,-0.59944 4.53482,-0.91671 6.93643,-0.91671 13.74709,0 24.87338,10.51494 24.87338,23.49831 0,1.16334 -0.0717,2.30433 -0.24446,3.42238 11.24737,-2.7633 19.61758,-13.14746 19.61758,-25.54563 0,-14.51082 -11.47779,-26.279 -25.60674,-26.279 z"
         style="fill:#000000;stroke:none;display:inline" />
    </g>
  </g>
</svg>
