<?xml version="1.0" encoding="UTF-8" standalone="no"?>
<!-- Created with Inkscape (http://www.inkscape.org/) -->

<svg
   xmlns:dc="http://purl.org/dc/elements/1.1/"
   xmlns:cc="http://creativecommons.org/ns#"
   xmlns:rdf="http://www.w3.org/1999/02/22-rdf-syntax-ns#"
   xmlns:svg="http://www.w3.org/2000/svg"
   xmlns="http://www.w3.org/2000/svg"
   xmlns:xlink="http://www.w3.org/1999/xlink"
   xmlns:sodipodi="http://sodipodi.sourceforge.net/DTD/sodipodi-0.dtd"
   xmlns:inkscape="http://www.inkscape.org/namespaces/inkscape"
   width="1024"
   height="748"
   id="svg5685"
   version="1.1"
   inkscape:version="0.48.2 r9819"
   sodipodi:docname="launch_image_landscape-ipad.svg"
   inkscape:export-filename="/Users/jamiely/Documents/code/BunnyMatcher/BunnyMatcher/Default-iPad-1536x2008.png"
   inkscape:export-xdpi="180"
   inkscape:export-ydpi="180">
  <defs
     id="defs5687">
    <clipPath
       clipPathUnits="userSpaceOnUse"
       id="clipPath6835">
      <rect
         style="fill:#008000;stroke:none"
         id="rect6837"
         width="933.91937"
         height="682.19891"
         x="-1442.8911"
         y="69.915222" />
    </clipPath>
    <clipPath
       clipPathUnits="userSpaceOnUse"
       id="clipPath6862">
      <rect
         style="fill:#008000;stroke:none"
         id="rect6864"
         width="1941.6929"
         height="1418.3459"
         x="-606.05817"
         y="-455.54779"
         transform="matrix(0.99000821,-0.1410097,0.1410097,0.99000821,0,0)" />
    </clipPath>
  </defs>
  <sodipodi:namedview
     id="base"
     pagecolor="#ffffff"
     bordercolor="#666666"
     borderopacity="1.0"
     inkscape:pageopacity="0.0"
     inkscape:pageshadow="2"
     inkscape:zoom="0.56167665"
     inkscape:cx="814.86141"
     inkscape:cy="349.53537"
     inkscape:document-units="px"
     inkscape:current-layer="layer1"
     showgrid="false"
     inkscape:window-width="1232"
     inkscape:window-height="754"
     inkscape:window-x="261"
     inkscape:window-y="149"
     inkscape:window-maximized="0" />
  <metadata
     id="metadata5690">
    <rdf:RDF>
      <cc:Work
         rdf:about="">
        <dc:format>image/svg+xml</dc:format>
        <dc:type
           rdf:resource="http://purl.org/dc/dcmitype/StillImage" />
        <dc:title></dc:title>
      </cc:Work>
    </rdf:RDF>
  </metadata>
  <g
     inkscape:label="Layer 1"
     inkscape:groupmode="layer"
     id="layer1"
     transform="translate(0,-304.36218)">
    <rect
       style="fill:#008000;stroke:none"
       id="rect5737"
       width="1024"
       height="748"
       x="0"
       y="304.36218" />
    <g
       id="g6472"
       transform="matrix(0.52210545,0.07436497,-0.07436497,0.52210545,319.61984,544.60663)"
       clip-path="url(#clipPath6862)">
      <g
         transform="matrix(0.97782318,0,0,0.97782318,-128.06801,328.46597)"
         id="g4353"
         style="display:inline">
        <path
           style="fill:#d4aa00;stroke:none"
           d="m -82.8125,449.1875 c -25.07801,19.85195 -50.99783,64.3209 -22.96875,105.5 32.634373,47.945 71.825086,95.37638 106.6875,82.6875 15.031192,-5.47091 25.851252,-18.64354 31.75,-36.15625 -1.546738,0.78032 -3.101524,1.55625 -4.75,2.15625 -2.178901,0.79305 -4.383692,1.34958 -6.59375,1.6875 -2.210058,0.33792 -4.420349,0.46311 -6.65625,0.375 -2.235901,-0.0881 -4.493571,-0.38996 -6.75,-0.875 -2.2564289,-0.48504 -4.5096079,-1.14714 -6.78125,-2 -2.2716421,-0.85286 -4.5622095,-1.90217 -6.84375,-3.09375 -2.2815405,-1.19158 -4.557626,-2.53005 -6.84375,-4.03125 -2.286124,-1.5012 -4.589607,-3.1558 -6.875,-4.9375 -2.285393,-1.7817 -4.564403,-3.68564 -6.84375,-5.71875 -4.558694,-4.06621 -9.091128,-8.63405 -13.59375,-13.53125 -4.502622,-4.8972 -8.970968,-10.12965 -13.375,-15.625 -4.404032,-5.49535 -8.737077,-11.23309 -13,-17.09375 -4.262923,-5.86066 -8.451953,-11.85063 -12.53125,-17.84375 -1.758342,-2.58328 -3.309011,-5.17875 -4.65625,-7.78125 -1.347239,-2.6025 -2.505559,-5.20459 -3.46875,-7.8125 -0.963191,-2.60791 -1.737552,-5.21299 -2.34375,-7.8125 -0.606198,-2.59951 -1.036242,-5.20394 -1.3125,-7.78125 -0.276258,-2.57731 -0.401626,-5.1462 -0.375,-7.6875 0.02663,-2.5413 0.197543,-5.03977 0.5,-7.53125 0.302457,-2.49148 0.761267,-4.9784 1.3125,-7.40625 0.551233,-2.42785 1.195795,-4.80584 1.96875,-7.15625 0.772955,-2.35041 1.657378,-4.64708 2.625,-6.90625 0.528986,-1.23505 1.137838,-2.42041 1.71875,-3.625 z"
           id="path3239"
           inkscape:connector-curvature="0" />
        <path
           style="fill:#f9f9f9;stroke:none"
           d="m -82.8125,449.1875 c -0.580912,1.20459 -1.189764,2.38995 -1.71875,3.625 -0.967622,2.25917 -1.852045,4.55584 -2.625,6.90625 -0.772955,2.35041 -1.417517,4.7284 -1.96875,7.15625 -0.551233,2.42785 -1.010043,4.91477 -1.3125,7.40625 -0.302457,2.49148 -0.473374,4.98995 -0.5,7.53125 -0.02663,2.5413 0.09874,5.11019 0.375,7.6875 0.276258,2.57731 0.706302,5.18174 1.3125,7.78125 0.606198,2.59951 1.380559,5.20459 2.34375,7.8125 0.963191,2.60791 2.121511,5.21 3.46875,7.8125 1.347239,2.6025 2.897908,5.19797 4.65625,7.78125 4.079297,5.99312 8.268327,11.98309 12.53125,17.84375 4.262923,5.86066 8.595968,11.5984 13,17.09375 4.404032,5.49535 8.872378,10.7278 13.375,15.625 4.502622,4.8972 9.035056,9.46504 13.59375,13.53125 2.279347,2.03311 4.558357,3.93705 6.84375,5.71875 2.285393,1.7817 4.588876,3.4363 6.875,4.9375 2.286124,1.5012 4.5622095,2.83967 6.84375,4.03125 2.2815405,1.19158 4.5721079,2.24089 6.84375,3.09375 2.2716421,0.85286 4.5248211,1.51496 6.78125,2 2.256429,0.48504 4.514099,0.78689 6.75,0.875 2.235901,0.0881 4.446192,-0.0371 6.65625,-0.375 2.210058,-0.33792 4.414849,-0.89445 6.59375,-1.6875 1.648476,-0.6 3.203262,-1.37593 4.75,-2.15625 7.782443,-23.10518 6.981365,-53.78254 -4.1875,-84.46875 -2.129171,-5.84985 -4.555509,-11.44623 -7.21875,-16.78125 -7.776395,13.33622 -24.5744011,36.34792 -33.5625,25.15625 -27.767308,-34.57489 -61.58767,-23.53623 -68.84375,-64.6875 -0.682144,-3.86863 -1.145869,-7.7154 -1.375,-11.5 -0.09337,0.0732 -0.187849,0.17606 -0.28125,0.25 z"
           id="path3119"
           inkscape:connector-curvature="0" />
      </g>
      <use
         height="1052.3622"
         width="744.09448"
         transform="translate(27.379048,-89.95973)"
         id="use4357"
         xlink:href="#g4343"
         y="0"
         x="0"
         style="display:inline" />
      <use
         height="1052.3622"
         width="744.09448"
         transform="translate(-17.600812,-95.826673)"
         id="use4360"
         xlink:href="#g4349"
         y="0"
         x="0"
         style="display:inline" />
      <use
         height="1052.3622"
         width="744.09448"
         transform="translate(46.935518,-46.93551)"
         id="use4364"
         xlink:href="#path2991"
         y="0"
         x="0"
         style="display:inline" />
      <g
         transform="matrix(0.97782318,0,0,0.97782318,-128.06801,328.46597)"
         id="g4343">
        <g
           id="g4325"
           style="fill:#d4aa00">
          <path
             d="m 560.02856,685.37378 c 0,49.59658 -19.9447,89.80256 -44.54773,89.80256 -24.60302,0 -44.54772,-40.20598 -44.54772,-89.80256 0,-49.59658 19.9447,-89.80256 44.54772,-89.80256 24.60303,0 44.54773,40.20598 44.54773,89.80256 z"
             sodipodi:ry="89.802559"
             sodipodi:rx="44.547726"
             sodipodi:cy="685.37378"
             sodipodi:cx="515.48083"
             id="path3023"
             style="fill:#d4aa00;stroke:none"
             sodipodi:type="arc" />
          <path
             d="m 561.44276,767.39813 c 0,45.69134 -20.26128,82.73149 -45.25483,82.73149 -24.99356,0 -45.25484,-37.04015 -45.25484,-82.73149 0,-45.69134 20.26128,-82.73149 45.25484,-82.73149 24.99355,0 45.25483,37.04015 45.25483,82.73149 z"
             sodipodi:ry="82.731491"
             sodipodi:rx="45.254833"
             sodipodi:cy="767.39813"
             sodipodi:cx="516.18793"
             id="path3025"
             style="fill:#d4aa00;stroke:none"
             sodipodi:type="arc" />
        </g>
        <path
           sodipodi:type="arc"
           style="fill:#d4aa00;stroke:none"
           id="path3027"
           sodipodi:cx="540.22955"
           sodipodi:cy="829.62354"
           sodipodi:rx="53.740116"
           sodipodi:ry="21.920311"
           d="m 593.96967,829.62354 c 0,12.10625 -24.06027,21.92031 -53.74012,21.92031 -29.67984,0 -53.74011,-9.81406 -53.74011,-21.92031 0,-12.10626 24.06027,-21.92032 53.74011,-21.92032 29.67985,0 53.74012,9.81406 53.74012,21.92032 z" />
      </g>
      <g
         transform="matrix(0.97782318,0,0,0.97782318,-128.06801,328.46597)"
         id="g4374">
        <g
           id="g4333"
           style="fill:#d4aa00">
          <path
             transform="matrix(1,0,0,1.1538454,0,-46.806407)"
             d="m 568.51385,471.12042 c 0,92.16373 -62.68333,166.8772 -140.00714,166.8772 -77.32381,0 -140.00714,-74.71347 -140.00714,-166.8772 0,-92.16373 62.68333,-166.87719 140.00714,-166.87719 77.32381,0 140.00714,74.71346 140.00714,166.87719 z"
             sodipodi:ry="166.8772"
             sodipodi:rx="140.00714"
             sodipodi:cy="471.12042"
             sodipodi:cx="428.50671"
             id="path3010"
             style="fill:#d4aa00;stroke:none"
             sodipodi:type="arc" />
          <path
             transform="matrix(0.93969262,-0.34202015,0.34202015,0.93969262,-159.60603,141.21779)"
             d="m 502.04581,524.86053 c 0,108.56576 -129.48224,196.57569 -289.20667,196.57569 -159.724429,0 -289.206663,-88.00993 -289.206663,-196.57569 0,-108.56575 129.482234,-196.57568 289.206663,-196.57568 159.72443,0 289.20667,88.00993 289.20667,196.57568 z"
             sodipodi:ry="196.57568"
             sodipodi:rx="289.20667"
             sodipodi:cy="524.86053"
             sodipodi:cx="212.83914"
             id="path3014"
             style="fill:#d4aa00;stroke:none"
             sodipodi:type="arc" />
        </g>
        <path
           sodipodi:type="arc"
           style="fill:#d4aa00;stroke:none"
           id="path3017"
           sodipodi:cx="120.91526"
           sodipodi:cy="677.59558"
           sodipodi:rx="178.89801"
           sodipodi:ry="110.30865"
           d="m 299.81327,677.59558 c 0,60.92178 -80.09537,110.30865 -178.89801,110.30865 -98.802643,0 -178.89801,-49.38687 -178.89801,-110.30865 0,-60.92178 80.095367,-110.30865 178.89801,-110.30865 98.80264,0 178.89801,49.38687 178.89801,110.30865 z"
           transform="matrix(0.98480775,-0.17364818,0.17364818,0.98480775,-115.82626,31.290914)" />
      </g>
      <g
         transform="matrix(0.97782318,0,0,0.97782318,-128.06801,328.46597)"
         id="g4349">
        <path
           sodipodi:type="arc"
           style="fill:#d4aa00;stroke:none"
           id="path3019"
           sodipodi:cx="167.5843"
           sodipodi:cy="783.66162"
           sodipodi:rx="86.974136"
           sodipodi:ry="145.664"
           d="m 254.55844,783.66162 c 0,80.44801 -38.93965,145.664 -86.97414,145.664 -48.03448,0 -86.974132,-65.21599 -86.974132,-145.664 0,-80.44801 38.939652,-145.664 86.974132,-145.664 48.03449,0 86.97414,65.21599 86.97414,145.664 z"
           transform="matrix(0.6427876,0.76604445,-0.76604445,0.6427876,653.11175,119.02971)" />
        <path
           sodipodi:type="arc"
           style="fill:#d4aa00;stroke:none"
           id="path3021"
           sodipodi:cx="210.71782"
           sodipodi:cy="851.54388"
           sodipodi:rx="173.94827"
           sodipodi:ry="21.213203"
           d="m 384.66609,851.54388 c 0,11.71573 -77.87929,21.21321 -173.94827,21.21321 -96.06898,0 -173.948273,-9.49748 -173.948273,-21.21321 0,-11.71572 77.879293,-21.2132 173.948273,-21.2132 96.06898,0 173.94827,9.49748 173.94827,21.2132 z"
           transform="matrix(0.9961947,0.08715574,-0.12304518,1.4064128,108.40864,-361.86521)" />
      </g>
      <path
         inkscape:connector-curvature="0"
         id="path2985"
         d="m 327.56704,509.79106 c -66.82615,0 -120.97506,36.84815 -120.97506,82.28993 0,9.94039 2.58374,19.47434 7.33367,28.29576 -0.28431,2.75876 -0.4278,5.5275 -0.4278,8.34205 0,58.04328 61.60719,105.11599 137.59806,105.11599 75.99087,0 137.59806,-47.07271 137.59806,-105.11599 0,-39.99902 -29.27049,-74.76764 -72.32836,-92.52652 -22.10084,-16.22256 -53.71331,-26.40122 -88.79857,-26.40122 z"
         style="fill:#d4aa00;fill-rule:evenodd;stroke:none" />
      <path
         sodipodi:nodetypes="sscscsss"
         inkscape:connector-curvature="0"
         id="path2991"
         d="m 49.345792,449.65493 c -49.62519988,0.13629 -86.59493,14.55711 -93.5349,40.45744 -9.03445,33.71702 7.4308,72.08634 75.87296,98.48512 41.83281,13.12401 118.644498,-12.36049 179.827798,4.03352 12.90206,3.4571 28.17045,3.59361 38.86847,4.18631 8.89436,-2.89587 22.73779,-8.61969 26.00399,-20.8093 C 286.9593,536.54086 223.76593,485.32277 135.24144,461.60271 104.81115,453.44893 75.339932,449.58354 49.345792,449.65493 z"
         style="fill:#d4aa00;fill-rule:evenodd;stroke:none" />
      <path
         transform="matrix(0.86122317,0.40722555,-0.4361226,0.60408361,34.413252,214.2105)"
         d="m 524.67323,264.64523 c 0,13.27783 -11.71355,24.04163 -26.16295,24.04163 -14.44939,0 -26.16295,-10.7638 -26.16295,-24.04163 0,-13.27782 11.71356,-24.04163 26.16295,-24.04163 14.4494,0 26.16295,10.76381 26.16295,24.04163 z"
         sodipodi:ry="24.04163"
         sodipodi:rx="26.162951"
         sodipodi:cy="264.64523"
         sodipodi:cx="498.51028"
         id="path2998"
         style="fill:#000000;stroke:none;display:inline"
         sodipodi:type="arc" />
      <path
         inkscape:connector-curvature="0"
         id="path3000"
         d="m 474.14885,584.4723 c -13.97852,0 -25.33585,11.52323 -25.57619,25.82065 2.19719,-0.59944 4.53482,-0.91671 6.93643,-0.91671 13.74709,0 24.87338,10.51494 24.87338,23.49831 0,1.16334 -0.0717,2.30433 -0.24446,3.42238 11.24737,-2.7633 19.61758,-13.14746 19.61758,-25.54563 0,-14.51082 -11.47779,-26.279 -25.60674,-26.279 z"
         style="fill:#000000;stroke:none;display:inline" />
    </g>
    <text
       xml:space="preserve"
       style="font-size:285.37930298px;font-style:normal;font-variant:normal;font-weight:bold;font-stretch:normal;text-align:center;line-height:60.00000238%;letter-spacing:0px;word-spacing:0px;writing-mode:lr-tb;text-anchor:middle;fill:#f9f9f9;fill-opacity:1;stroke:none;font-family:Nanum Pen Script;-inkscape-font-specification:Nanum Pen Script Bold"
       x="508.5708"
       y="588.94519"
       id="text5693"
       sodipodi:linespacing="60.000002%"><tspan
         sodipodi:role="line"
         id="tspan5695"
         x="508.5708"
         y="588.94519">BUNNY</tspan><tspan
         sodipodi:role="line"
         x="508.5708"
         y="760.17279"
         id="tspan5697">MATCHER</tspan></text>
    <g
       id="g5987"
       transform="matrix(1.0964544,0,0,1.0964544,1582.0643,227.70333)"
       clip-path="url(#clipPath6835)">
      <path
         transform="matrix(0.64124516,-0.50945205,0.48017994,0.82896763,-899.03309,110.45351)"
         d="m 412.90534,381.13931 c 0,59.56848 -38.21708,107.85828 -85.36024,107.85828 -47.14315,0 -85.36023,-48.2898 -85.36023,-107.85828 0,-59.56848 38.21708,-107.85827 85.36023,-107.85827 47.14316,0 85.36024,48.28979 85.36024,107.85827 z"
         sodipodi:ry="107.85828"
         sodipodi:rx="85.360237"
         sodipodi:cy="381.13931"
         sodipodi:cx="327.5451"
         id="path4694"
         style="fill:#ff6600;stroke:none"
         sodipodi:type="arc" />
      <g
         transform="translate(-854.29188,-411.83045)"
         id="g4929">
        <path
           transform="matrix(1.1047333,0.26565991,-0.29293348,1.0018771,57.371211,59.944885)"
           d="m 674.94142,475.76343 c 0,40.93049 -19.55293,74.11121 -43.67268,74.11121 -24.11976,0 -43.67268,-33.18072 -43.67268,-74.11121 0,-40.9305 19.55292,-74.11122 43.67268,-74.11122 24.11975,0 43.67268,33.18072 43.67268,74.11122 z"
           sodipodi:ry="74.111214"
           sodipodi:rx="43.67268"
           sodipodi:cy="475.76343"
           sodipodi:cx="631.26874"
           id="path4931"
           style="fill:#ff6600;stroke:none"
           sodipodi:type="arc" />
        <path
           transform="matrix(0.88629342,-0.46312414,0.46312414,0.88629342,-176.21434,557.15385)"
           d="m 647.1497,543.91931 c 0,31.06332 -17.77539,56.24512 -39.70243,56.24512 -21.92705,0 -39.70244,-25.1818 -39.70244,-56.24512 0,-31.06332 17.77539,-56.24512 39.70244,-56.24512 21.92704,0 39.70243,25.1818 39.70243,56.24512 z"
           sodipodi:ry="56.245117"
           sodipodi:rx="39.702435"
           sodipodi:cy="543.91931"
           sodipodi:cx="607.44727"
           id="path4933"
           style="fill:#ff6600;stroke:none"
           sodipodi:type="arc" />
        <path
           transform="matrix(1.2192481,-0.46990697,0.64905722,0.88271595,-516.62754,591.28939)"
           d="m 651.11998,586.93024 c 0,24.85065 -7.70267,44.99609 -17.20439,44.99609 -9.50172,0 -17.20439,-20.14544 -17.20439,-44.99609 0,-24.85066 7.70267,-44.9961 17.20439,-44.9961 9.50172,0 17.20439,20.14544 17.20439,44.9961 z"
           sodipodi:ry="44.996094"
           sodipodi:rx="17.20439"
           sodipodi:cy="586.93024"
           sodipodi:cx="633.91559"
           id="path4935"
           style="fill:#ff6600;stroke:none"
           sodipodi:type="arc" />
        <path
           transform="matrix(0.9326792,0.36070695,-0.36070695,0.9326792,278.17037,34.183506)"
           d="m 667.00095,646.48389 c 0,26.31246 -8.29518,47.64292 -18.52781,47.64292 -10.23262,0 -18.5278,-21.33046 -18.5278,-47.64292 0,-26.31246 8.29518,-47.64292 18.5278,-47.64292 10.23263,0 18.52781,21.33046 18.52781,47.64292 z"
           sodipodi:ry="47.642921"
           sodipodi:rx="18.527803"
           sodipodi:cy="646.48389"
           sodipodi:cx="648.47314"
           id="path4937"
           style="fill:#ff6600;stroke:none"
           sodipodi:type="arc" />
      </g>
      <path
         id="path4696"
         d="m -275.51063,199.78173 c -3.51494,0.0239 -7.04908,0.10459 -10.625,0.28125 -18.28811,0.90347 -35.64115,3.78464 -51.4375,8.1875 -22.63672,-2.4723 -48.22938,-1.425 -74.78125,3.78125 -79.25545,15.54028 -136.85221,62.13499 -128.625,104.09375 8.22721,41.95876 79.1508,63.38403 158.40625,47.84375 16.48176,-3.23172 32.00866,-7.80833 46.21875,-13.40625 17.73436,3.63125 37.31639,5.17035 57.84375,4.15625 76.28619,-3.7687 136.42225,-41.41934 134.3125,-84.125 -2.01086,-40.70384 -59.84207,-71.29798 -131.3125,-70.8125 z"
         style="fill:#ff6600;stroke:none"
         inkscape:connector-curvature="0" />
      <path
         id="path4780"
         d="m -145.29188,262.81298 c -8.58671,37.44499 -64.31552,68.50228 -133.21875,71.90625 -20.52736,1.0141 -40.10939,-0.525 -57.84375,-4.15625 -14.21009,5.59792 -29.73699,10.17453 -46.21875,13.40625 -78.1354,15.32066 -148.15274,-5.30335 -158,-46.09375 -1.40156,6.1093 -1.58739,12.2262 -0.40625,18.25 8.22721,41.95876 79.1508,63.38403 158.40625,47.84375 16.48176,-3.23172 32.00866,-7.80833 46.21875,-13.40625 17.73436,3.63125 37.31639,5.17035 57.84375,4.15625 76.28619,-3.7687 136.42225,-41.41934 134.3125,-84.125 -0.13046,-2.64068 -0.50494,-5.2314 -1.09375,-7.78125 z"
         style="fill:#b3b3b3;stroke:none"
         inkscape:connector-curvature="0" />
      <g
         transform="matrix(0.64373977,0.76524448,-0.76524448,0.64373977,-101.40978,-656.80528)"
         id="g5268">
        <path
           sodipodi:type="arc"
           style="fill:#ff6600;stroke:none"
           id="path4709"
           sodipodi:cx="725.23114"
           sodipodi:cy="411.57785"
           sodipodi:rx="75.434631"
           sodipodi:ry="45.657803"
           d="m 800.66577,411.57785 c 0,25.21611 -33.77323,45.6578 -75.43463,45.6578 -41.6614,0 -75.43463,-20.44169 -75.43463,-45.6578 0,-25.21611 33.77323,-45.6578 75.43463,-45.6578 41.6614,0 75.43463,20.44169 75.43463,45.6578 z"
           transform="matrix(0.9876117,0.15691757,-0.15691757,0.9876117,56.363785,133.0721)" />
        <path
           inkscape:connector-curvature="0"
           style="fill:#ff6600;stroke:none"
           d="m 845.40625,626.42468 c -10.97239,-3.38871 -23.39816,-5.5 -36.8125,-5.5 -42.3923,0 -76.75,19.2457 -76.75,43 0,23.7543 34.3577,43.03125 76.75,43.03125 13.92088,0 26.8054,-2.24455 38.0625,-5.875 -2.30045,-1.53435 -4.51515,-3.18494 -6.5,-5.0625 -2.21529,-2.09555 -4.20883,-4.37954 -5.96875,-6.84375 -1.75992,-2.46421 -3.29233,-5.10421 -4.53125,-7.875 -1.23892,-2.77079 -2.19147,-5.67221 -2.84375,-8.6875 -0.32614,-1.50764 -0.58283,-3.03662 -0.75,-4.59375 -0.16717,-1.55713 -0.25,-3.15115 -0.25,-4.75 0,-1.59885 0.0828,-3.16162 0.25,-4.71875 0.16717,-1.55713 0.42386,-3.08611 0.75,-4.59375 0.65228,-3.01529 1.60483,-5.94796 2.84375,-8.71875 1.23892,-2.77079 2.77133,-5.37954 4.53125,-7.84375 1.75992,-2.46421 3.75346,-4.77945 5.96875,-6.875 1.60386,-1.51716 3.43711,-2.79788 5.25,-4.09375 z"
           id="path4747" />
        <path
           inkscape:connector-curvature="0"
           style="fill:#b3b3b3;stroke:none"
           d="m 845.40625,626.42468 c -1.81289,1.29587 -3.64614,2.57659 -5.25,4.09375 -2.21529,2.09555 -4.20883,4.41079 -5.96875,6.875 -1.75992,2.46421 -3.29233,5.07296 -4.53125,7.84375 -1.23892,2.77079 -2.19147,5.70346 -2.84375,8.71875 -0.32614,1.50764 -0.58283,3.03662 -0.75,4.59375 -0.16717,1.55713 -0.25,3.1199 -0.25,4.71875 0,1.59885 0.0828,3.19287 0.25,4.75 0.16717,1.55713 0.42386,3.08611 0.75,4.59375 0.65228,3.01529 1.60483,5.91671 2.84375,8.6875 1.23892,2.77079 2.77133,5.41079 4.53125,7.875 1.75992,2.46421 3.75346,4.7482 5.96875,6.84375 1.98485,1.87756 4.19955,3.52815 6.5,5.0625 23.02336,-7.42511 38.71875,-21.20244 38.71875,-37.15625 0,-16.23765 -16.26593,-30.17963 -39.96875,-37.5 z"
           id="path4711" />
      </g>
      <path
         inkscape:connector-curvature="0"
         id="path4794"
         d="m -540.35438,161.50048 c -6.21566,1.54934 -12.07607,4.39031 -17.40625,8.625 -30.23032,24.01718 -31.57234,83.52591 -2.96875,132.90625 28.60359,49.38034 76.30093,69.92343 106.53125,45.90625 1.29039,-1.02518 2.53379,-2.09906 3.71875,-3.25 -29.03162,7.21477 -65.51076,-13.90351 -89.0625,-54.5625 -27.37174,-47.25371 -27.35613,-103.79845 -0.8125,-129.625 z"
         style="fill:#b3b3b3;stroke:none" />
      <path
         inkscape:connector-curvature="0"
         id="path4704"
         d="m -548.97938,132.59423 c -14.61232,0 -27.38834,6.69485 -34.28125,16.6875 -5.05929,1.04303 -9.94888,2.32186 -14.65625,3.8125 1.68301,4.82189 2.59375,9.88107 2.59375,15.125 0,27.90058 -25.44906,51.10904 -59.03125,55.96875 10.50254,25.63854 50.84437,40.89944 96.25,34.84375 50.35183,-6.71536 87.85651,-37.11556 83.75,-67.90625 -2.28682,-17.14659 -16.9997,-30.77375 -38.28125,-38.34375 -6.13957,-11.89283 -20.08538,-20.1875 -36.34375,-20.1875 z"
         style="fill:#ff6600;stroke:none" />
      <g
         transform="translate(-820.29188,-391.83045)"
         id="g4806">
        <path
           style="fill:#ff6600;stroke:none"
           d="m 222.98047,549.46466 -11.91073,-62.20048 c 0,0 43.67268,26.46829 48.96634,54.25999 5.29366,27.79171 -37.05561,7.94049 -37.05561,7.94049 z"
           id="path4717"
           inkscape:connector-curvature="0" />
        <path
           inkscape:connector-curvature="0"
           style="fill:#d45500;stroke:none"
           d="m 211.0625,234.90625 3.65625,19.15625 c 8.48287,1.60654 17.84439,10.70716 23.3125,23.6875 3.85919,9.16105 4.98007,18.34815 3.625,25.5 10.57713,2 21.18457,0.65651 18.375,-14.09375 -5.29366,-27.7917 -48.96875,-54.25 -48.96875,-54.25 z"
           transform="translate(0,252.36218)"
           id="path4803" />
      </g>
      <path
         transform="translate(-820.29188,-139.46827)"
         d="m 244.83169,340.11346 c 0,4.75087 -3.85134,8.6022 -8.6022,8.6022 -4.75086,0 -8.60219,-3.85133 -8.60219,-8.6022 0,-4.75086 3.85133,-8.60219 8.60219,-8.60219 4.75086,0 8.6022,3.85133 8.6022,8.60219 z"
         sodipodi:ry="8.6021948"
         sodipodi:rx="8.6021948"
         sodipodi:cy="340.11346"
         sodipodi:cx="236.22949"
         id="path4844"
         style="fill:#000000;stroke:none"
         sodipodi:type="arc" />
      <path
         inkscape:connector-curvature="0"
         id="path4848"
         d="m -599.94813,215.87548 c -18.95109,0 -35.18668,10.21498 -42.09375,24.75 17.76703,15.26876 49.37437,23.01589 83.9375,18.40625 1.2594,-0.16796 2.50713,-0.36527 3.75,-0.5625 0.0457,-0.73983 0.0625,-1.50009 0.0625,-2.25 0,-22.2925 -20.44014,-40.34375 -45.65625,-40.34375 z"
         style="fill:#b3b3b3;stroke:none" />
      <path
         transform="translate(-820.29188,-139.46827)"
         d="m 189.24827,365.92004 c 0,7.30902 -5.92512,13.23415 -13.23414,13.23415 -7.30902,0 -13.23415,-5.92513 -13.23415,-13.23415 0,-7.30901 5.92513,-13.23414 13.23415,-13.23414 7.30902,0 13.23414,5.92513 13.23414,13.23414 z"
         sodipodi:ry="13.234145"
         sodipodi:rx="13.234145"
         sodipodi:cy="365.92004"
         sodipodi:cx="176.01413"
         id="path4842"
         style="fill:#000000;stroke:none"
         sodipodi:type="arc" />
      <path
         transform="matrix(0.99636986,-0.38043121,0.2987001,1.338707,-974.24768,-205.74312)"
         d="m 415.55215,569.72589 c 0,26.31246 -11.85025,47.64292 -26.46829,47.64292 -14.61803,0 -26.46829,-21.33046 -26.46829,-47.64292 0,-26.31246 11.85026,-47.64292 26.46829,-47.64292 14.61804,0 26.46829,21.33046 26.46829,47.64292 z"
         sodipodi:ry="47.642921"
         sodipodi:rx="26.46829"
         sodipodi:cy="569.72589"
         sodipodi:cx="389.08386"
         id="path4872"
         style="fill:#ff6600;stroke:none"
         sodipodi:type="arc" />
      <path
         transform="matrix(0.81471515,-0.31057726,0.20860114,1.3565338,-848.33824,-188.31852)"
         d="m 428.7863,585.60687 c 0,24.11976 -10.66523,43.67268 -23.82146,43.67268 -13.15623,0 -23.82146,-19.55292 -23.82146,-43.67268 0,-24.11975 10.66523,-43.67268 23.82146,-43.67268 13.15623,0 23.82146,19.55293 23.82146,43.67268 z"
         sodipodi:ry="43.67268"
         sodipodi:rx="23.821461"
         sodipodi:cy="585.60687"
         sodipodi:cx="404.96484"
         id="path4874"
         style="fill:#ff6600;stroke:none"
         sodipodi:type="arc" />
      <path
         transform="matrix(0.73235083,-0.17671503,0.14234025,0.98462647,-781.41931,-23.988351)"
         d="m 428.78629,637.22003 c 0,5.11631 -11.25774,9.2639 -25.14487,9.2639 -13.88713,0 -25.14488,-4.14759 -25.14488,-9.2639 0,-5.11631 11.25775,-9.2639 25.14488,-9.2639 13.88713,0 25.14487,4.14759 25.14487,9.2639 z"
         sodipodi:ry="9.2639017"
         sodipodi:rx="25.144876"
         sodipodi:cy="637.22003"
         sodipodi:cx="403.64142"
         id="path4876"
         style="fill:#280b0b;stroke:none"
         sodipodi:type="arc" />
      <path
         transform="matrix(0.96979983,0.04709291,0.04886469,1.3156404,-826.76425,-320.19595)"
         d="m 363.939,518.11273 c 0,20.46525 -13.03528,37.05561 -29.11512,37.05561 -16.07983,0 -29.11512,-16.59036 -29.11512,-37.05561 0,-20.46524 13.03529,-37.0556 29.11512,-37.0556 16.07984,0 29.11512,16.59036 29.11512,37.0556 z"
         sodipodi:ry="37.055607"
         sodipodi:rx="29.11512"
         sodipodi:cy="518.11273"
         sodipodi:cx="334.82388"
         id="path4892"
         style="fill:#ff6600;stroke:none"
         sodipodi:type="arc" />
      <path
         transform="matrix(0.96979983,0.04709291,0.04886469,1.3156404,-826.76425,-320.19595)"
         d="m 357.32192,558.47687 c 0,18.63799 -9.18395,33.74707 -20.51293,33.74707 -11.32898,0 -20.51293,-15.10908 -20.51293,-33.74707 0,-18.63799 9.18395,-33.74707 20.51293,-33.74707 11.32898,0 20.51293,15.10908 20.51293,33.74707 z"
         sodipodi:ry="33.74707"
         sodipodi:rx="20.512926"
         sodipodi:cy="558.47687"
         sodipodi:cx="336.80899"
         id="path4894"
         style="fill:#ff6600;stroke:none"
         sodipodi:type="arc" />
      <path
         transform="matrix(0.96979983,0.04709291,0.04886469,1.3156404,-826.76425,-320.19595)"
         d="m 355.99852,600.16443 c 0,13.15623 -7.40641,23.82146 -16.54268,23.82146 -9.13627,0 -16.54268,-10.66523 -16.54268,-23.82146 0,-13.15623 7.40641,-23.82146 16.54268,-23.82146 9.13627,0 16.54268,10.66523 16.54268,23.82146 z"
         sodipodi:ry="23.821461"
         sodipodi:rx="16.542681"
         sodipodi:cy="600.16443"
         sodipodi:cx="339.45584"
         id="path4896"
         style="fill:#ff6600;stroke:none"
         sodipodi:type="arc" />
      <path
         transform="matrix(0.69713611,0.03180752,0.03512616,0.88861056,-722.96293,-53.829231)"
         d="m 349.38144,621.33905 c 0,5.11631 -9.77646,9.2639 -21.83634,9.2639 -12.05987,0 -21.83633,-4.14759 -21.83633,-9.2639 0,-5.11631 9.77646,-9.2639 21.83633,-9.2639 12.05988,0 21.83634,4.14759 21.83634,9.2639 z"
         sodipodi:ry="9.2639017"
         sodipodi:rx="21.83634"
         sodipodi:cy="621.33905"
         sodipodi:cx="327.5451"
         id="path4898"
         style="fill:#280b0b;stroke:none"
         sodipodi:type="arc" />
      <path
         inkscape:connector-curvature="0"
         id="path4867"
         d="m -534.2391,333.13491 c 3.45133,5.44672 7.36885,10.83019 11.77152,16.01632 33.12778,39.02294 80.2857,53.40063 105.35947,32.11472 25.07379,-21.28592 18.56444,-70.17144 -14.56335,-109.19438 -4.40266,-5.18613 -9.07881,-9.92558 -13.89303,-14.21528 l -88.67461,75.27862 z"
         style="fill:#ff6600;stroke:none" />
      <path
         id="path4883"
         d="m -517.44813,318.87548 -16.78125,14.25 c 3.45133,5.44672 7.34733,10.84512 11.75,16.03125 8.7743,10.3357 18.55324,18.9206 28.625,25.59375 0.80221,-8.85661 -0.73803,-19.25131 -4.875,-29.59375 -4.51508,-11.28771 -11.30163,-20.43588 -18.71875,-26.28125 z"
         style="fill:#b3b3b3;stroke:none"
         inkscape:connector-curvature="0" />
      <g
         transform="translate(-820.29188,-391.83045)"
         id="g4923">
        <path
           sodipodi:type="arc"
           style="fill:#ff6600;stroke:none"
           id="path4913"
           sodipodi:cx="631.26874"
           sodipodi:cy="475.76343"
           sodipodi:rx="43.67268"
           sodipodi:ry="74.111214"
           d="m 674.94142,475.76343 c 0,40.93049 -19.55293,74.11121 -43.67268,74.11121 -24.11976,0 -43.67268,-33.18072 -43.67268,-74.11121 0,-40.9305 19.55292,-74.11122 43.67268,-74.11122 24.11975,0 43.67268,33.18072 43.67268,74.11122 z"
           transform="matrix(1.1047333,0.26565991,-0.29293348,1.0018771,57.371211,59.944885)" />
        <path
           sodipodi:type="arc"
           style="fill:#ff6600;stroke:none"
           id="path4915"
           sodipodi:cx="607.44727"
           sodipodi:cy="543.91931"
           sodipodi:rx="39.702435"
           sodipodi:ry="56.245117"
           d="m 647.1497,543.91931 c 0,31.06332 -17.77539,56.24512 -39.70243,56.24512 -21.92705,0 -39.70244,-25.1818 -39.70244,-56.24512 0,-31.06332 17.77539,-56.24512 39.70244,-56.24512 21.92704,0 39.70243,25.1818 39.70243,56.24512 z"
           transform="matrix(0.88629342,-0.46312414,0.46312414,0.88629342,-176.21434,557.15385)" />
        <path
           sodipodi:type="arc"
           style="fill:#ff6600;stroke:none"
           id="path4917"
           sodipodi:cx="633.91559"
           sodipodi:cy="586.93024"
           sodipodi:rx="17.20439"
           sodipodi:ry="44.996094"
           d="m 651.11998,586.93024 c 0,24.85065 -7.70267,44.99609 -17.20439,44.99609 -9.50172,0 -17.20439,-20.14544 -17.20439,-44.99609 0,-24.85066 7.70267,-44.9961 17.20439,-44.9961 9.50172,0 17.20439,20.14544 17.20439,44.9961 z"
           transform="matrix(1.2192481,-0.46990697,0.64905722,0.88271595,-516.62754,591.28939)" />
        <path
           sodipodi:type="arc"
           style="fill:#ff6600;stroke:none"
           id="path4919"
           sodipodi:cx="648.47314"
           sodipodi:cy="646.48389"
           sodipodi:rx="18.527803"
           sodipodi:ry="47.642921"
           d="m 667.00095,646.48389 c 0,26.31246 -8.29518,47.64292 -18.52781,47.64292 -10.23262,0 -18.5278,-21.33046 -18.5278,-47.64292 0,-26.31246 8.29518,-47.64292 18.5278,-47.64292 10.23263,0 18.52781,21.33046 18.52781,47.64292 z"
           transform="matrix(0.9326792,0.36070695,-0.36070695,0.9326792,278.17037,34.183506)" />
      </g>
      <path
         transform="matrix(1.1923077,0,0,1.3636364,-944.99825,-382.73444)"
         d="m 648.47313,661.70319 c 0,4.01996 -7.70267,7.27878 -17.20439,7.27878 -9.50172,0 -17.20439,-3.25882 -17.20439,-7.27878 0,-4.01996 7.70267,-7.27878 17.20439,-7.27878 9.50172,0 17.20439,3.25882 17.20439,7.27878 z"
         sodipodi:ry="7.27878"
         sodipodi:rx="17.20439"
         sodipodi:cy="661.70319"
         sodipodi:cx="631.26874"
         id="path4921"
         style="fill:#000000;stroke:none"
         sodipodi:type="arc" />
      <path
         sodipodi:type="arc"
         style="fill:#000000;stroke:none"
         id="path4939"
         sodipodi:cx="631.26874"
         sodipodi:cy="661.70319"
         sodipodi:rx="17.20439"
         sodipodi:ry="7.27878"
         d="m 648.47313,661.70319 c 0,4.01996 -7.70267,7.27878 -17.20439,7.27878 -9.50172,0 -17.20439,-3.25882 -17.20439,-7.27878 0,-4.01996 7.70267,-7.27878 17.20439,-7.27878 9.50172,0 17.20439,3.25882 17.20439,7.27878 z"
         transform="matrix(1.0769231,0,0,1.0909091,-904.58321,-224.10627)" />
    </g>
  </g>
</svg>
