<?xml version="1.0" encoding="UTF-8" standalone="no"?>
<!-- Created with Inkscape (http://www.inkscape.org/) -->

<svg
   xmlns:dc="http://purl.org/dc/elements/1.1/"
   xmlns:cc="http://creativecommons.org/ns#"
   xmlns:rdf="http://www.w3.org/1999/02/22-rdf-syntax-ns#"
   xmlns:svg="http://www.w3.org/2000/svg"
   xmlns="http://www.w3.org/2000/svg"
   xmlns:sodipodi="http://sodipodi.sourceforge.net/DTD/sodipodi-0.dtd"
   xmlns:inkscape="http://www.inkscape.org/namespaces/inkscape"
   width="744.09448819"
   height="1052.3622047"
   
   version="1.1"
   inkscape:version="0.48.2 r9819"
   sodipodi:docname="bunny.svg">
  <defs
      />
  <sodipodi:namedview
     
     pagecolor="#ffffff"
     bordercolor="#666666"
     borderopacity="1.0"
     inkscape:pageopacity="0.0"
     inkscape:pageshadow="2"
     inkscape:zoom="0.5"
     inkscape:cx="70.312833"
     inkscape:cy="693.71493"
     inkscape:document-units="px"
     inkscape:current-layer="layer1"
     showgr
     inkscape:window-width="1076"
     inkscape:window-height="857"
     inkscape:window-x="0"
     inkscape:window-y="0"
     inkscape:window-maximized="0" />
  <metadata
     >
    <rdf:RDF>
      <cc:Work
         rdf:about="">
        <dc:format>image/svg+xml</dc:format>
        <dc:type
           rdf:resource="http://purl.org/dc/dcmitype/StillImage" />
        <dc:title></dc:title>
      </cc:Work>
    </rdf:RDF>
  </metadata>
  <g
     inkscape:groupmode="layer"
     
     id="tail"
     style="display:inline">
    <g
       >
      <path
         inkscape:connector-curvature="0"
         
         d="m -82.8125,449.1875 c -25.07801,19.85195 -50.99783,64.3209 -22.96875,105.5 32.634373,47.945 71.825086,95.37638 106.6875,82.6875 15.031192,-5.47091 25.851252,-18.64354 31.75,-36.15625 -1.546738,0.78032 -3.101524,1.55625 -4.75,2.15625 -2.178901,0.79305 -4.383692,1.34958 -6.59375,1.6875 -2.210058,0.33792 -4.420349,0.46311 -6.65625,0.375 -2.235901,-0.0881 -4.493571,-0.38996 -6.75,-0.875 -2.2564289,-0.48504 -4.5096079,-1.14714 -6.78125,-2 -2.2716421,-0.85286 -4.5622095,-1.90217 -6.84375,-3.09375 -2.2815405,-1.19158 -4.557626,-2.53005 -6.84375,-4.03125 -2.286124,-1.5012 -4.589607,-3.1558 -6.875,-4.9375 -2.285393,-1.7817 -4.564403,-3.68564 -6.84375,-5.71875 -4.558694,-4.06621 -9.091128,-8.63405 -13.59375,-13.53125 -4.502622,-4.8972 -8.970968,-10.12965 -13.375,-15.625 -4.404032,-5.49535 -8.737077,-11.23309 -13,-17.09375 -4.262923,-5.86066 -8.451953,-11.85063 -12.53125,-17.84375 -1.758342,-2.58328 -3.309011,-5.17875 -4.65625,-7.78125 -1.347239,-2.6025 -2.505559,-5.20459 -3.46875,-7.8125 -0.963191,-2.60791 -1.737552,-5.21299 -2.34375,-7.8125 -0.606198,-2.59951 -1.036242,-5.20394 -1.3125,-7.78125 -0.276258,-2.57731 -0.401626,-5.1462 -0.375,-7.6875 0.02663,-2.5413 0.197543,-5.03977 0.5,-7.53125 0.302457,-2.49148 0.761267,-4.9784 1.3125,-7.40625 0.551233,-2.42785 1.195795,-4.80584 1.96875,-7.15625 0.772955,-2.35041 1.657378,-4.64708 2.625,-6.90625 0.528986,-1.23505 1.137838,-2.42041 1.71875,-3.625 z"
         style="fill:#ffff00;stroke:#000000;stroke-width:1" />
      <path
         inkscape:connector-curvature="0"
         
         d="m -82.8125,449.1875 c -0.580912,1.20459 -1.189764,2.38995 -1.71875,3.625 -0.967622,2.25917 -1.852045,4.55584 -2.625,6.90625 -0.772955,2.35041 -1.417517,4.7284 -1.96875,7.15625 -0.551233,2.42785 -1.010043,4.91477 -1.3125,7.40625 -0.302457,2.49148 -0.473374,4.98995 -0.5,7.53125 -0.02663,2.5413 0.09874,5.11019 0.375,7.6875 0.276258,2.57731 0.706302,5.18174 1.3125,7.78125 0.606198,2.59951 1.380559,5.20459 2.34375,7.8125 0.963191,2.60791 2.121511,5.21 3.46875,7.8125 1.347239,2.6025 2.897908,5.19797 4.65625,7.78125 4.079297,5.99312 8.268327,11.98309 12.53125,17.84375 4.262923,5.86066 8.595968,11.5984 13,17.09375 4.404032,5.49535 8.872378,10.7278 13.375,15.625 4.502622,4.8972 9.035056,9.46504 13.59375,13.53125 2.279347,2.03311 4.558357,3.93705 6.84375,5.71875 2.285393,1.7817 4.588876,3.4363 6.875,4.9375 2.286124,1.5012 4.5622095,2.83967 6.84375,4.03125 2.2815405,1.19158 4.5721079,2.24089 6.84375,3.09375 2.2716421,0.85286 4.5248211,1.51496 6.78125,2 2.256429,0.48504 4.514099,0.78689 6.75,0.875 2.235901,0.0881 4.446192,-0.0371 6.65625,-0.375 2.210058,-0.33792 4.414849,-0.89445 6.59375,-1.6875 1.648476,-0.6 3.203262,-1.37593 4.75,-2.15625 7.782443,-23.10518 6.981365,-53.78254 -4.1875,-84.46875 -2.129171,-5.84985 -4.555509,-11.44623 -7.21875,-16.78125 -7.776395,13.33622 -24.5744011,36.34792 -33.5625,25.15625 -27.767308,-34.57489 -61.58767,-23.53623 -68.84375,-64.6875 -0.682144,-3.86863 -1.145869,-7.7154 -1.375,-11.5 -0.09337,0.0732 -0.187849,0.17606 -0.28125,0.25 z"
         style="fill:#e6e6e6;stroke:#000000;stroke-width:1" />
    </g>
  </g>
  <g
     inkscape:groupmode="layer"
     
     id="body">
    <path
       sodipodi:type="arc"
       style="fill:#ffff00;stroke:#000000"
       
       sodipodi:cx="428.50671"
       sodipodi:cy="471.12042"
       sodipodi:rx="140.00714"
       sodipodi:ry="166.8772"
       d="m 568.51385,471.12042 a 140.00714,166.8772 0 1 1 -280.01428,0 140.00714,166.8772 0 1 1 280.01428,0 z"
       transform="matrix(1,0,0,1.1538454,0,-46.806407)" />
    <path
       sodipodi:type="arc"
       style="fill:#ffff00;stroke:#000000"
       
       sodipodi:cx="212.83914"
       sodipodi:cy="524.86053"
       sodipodi:rx="289.20667"
       sodipodi:ry="196.57568"
       d="m 502.04581,524.86053 a 289.20667,196.57568 0 1 1 -578.413333,0 289.20667,196.57568 0 1 1 578.413333,0 z"
       transform="matrix(0.93969262,-0.34202015,0.34202015,0.93969262,-159.60603,141.21779)" />
    <path
       sodipodi:type="arc"
       style="fill:#ffff00;stroke:#000000"
       
       sodipodi:cx="515.48083"
       sodipodi:cy="685.37378"
       sodipodi:rx="44.547726"
       sodipodi:ry="89.802559"
       d="m 560.02856,685.37378 a 44.547726,89.802559 0 1 1 -89.09545,0 44.547726,89.802559 0 1 1 89.09545,0 z" />
    <path
       sodipodi:type="arc"
       style="fill:#ffff00;stroke:#000000"
       
       sodipodi:cx="516.18793"
       sodipodi:cy="767.39813"
       sodipodi:rx="45.254833"
       sodipodi:ry="82.731491"
       d="m 561.44276,767.39813 a 45.254833,82.731491 0 1 1 -90.50967,0 45.254833,82.731491 0 1 1 90.50967,0 z" />
    <path
       sodipodi:type="arc"
       style="fill:#ffff00;stroke:#000000"
       
       sodipodi:cx="540.22955"
       sodipodi:cy="829.62354"
       sodipodi:rx="53.740116"
       sodipodi:ry="21.920311"
       d="m 593.96967,829.62354 a 53.740116,21.920311 0 1 1 -107.48023,0 53.740116,21.920311 0 1 1 107.48023,0 z" />
  </g>
  <g
     inkscape:groupmode="layer"
     
     id="right leg">
    <path
       sodipodi:type="arc"
       style="fill:#ffff00;stroke:#000000"
       
       sodipodi:cx="120.91526"
       sodipodi:cy="677.59558"
       sodipodi:rx="178.89801"
       sodipodi:ry="110.30865"
       d="m 299.81327,677.59558 a 178.89801,110.30865 0 1 1 -357.79602,0 178.89801,110.30865 0 1 1 357.79602,0 z"
       transform="matrix(0.98480775,-0.17364818,0.17364818,0.98480775,-115.82626,31.290914)" />
    <path
       sodipodi:type="arc"
       style="fill:#ffff00;stroke:#000000"
       
       sodipodi:cx="167.5843"
       sodipodi:cy="783.66162"
       sodipodi:rx="86.974136"
       sodipodi:ry="145.664"
       d="m 254.55844,783.66162 a 86.974136,145.664 0 1 1 -173.948272,0 86.974136,145.664 0 1 1 173.948272,0 z"
       transform="matrix(0.6427876,0.76604445,-0.76604445,0.6427876,653.11175,119.02971)" />
    <path
       sodipodi:type="arc"
       style="fill:#ffff00;stroke:#000000"
       
       sodipodi:cx="210.71782"
       sodipodi:cy="851.54388"
       sodipodi:rx="173.94827"
       sodipodi:ry="21.213203"
       d="m 384.66609,851.54388 a 173.94827,21.213203 0 1 1 -347.896543,0 173.94827,21.213203 0 1 1 347.896543,0 z"
       transform="matrix(0.9961947,0.08715574,-0.12304518,1.4064128,108.40864,-361.86521)" />
  </g>
  <g
     id="left ear"
     
     inkscape:groupmode="layer"
     style="display:inline" />
  <g
     id="head"
     inkscape:groupmode="layer"
     >
    <path
       style="fill:#ffff00;fill-rule:evenodd;stroke:#000000;stroke-width:1px;stroke-linecap:butt;stroke-linejoin:miter;stroke-opacity:1"
       d="M 465.96875 185.4375 C 397.627 185.4375 342.25 223.12136 342.25 269.59375 C 342.25 279.75959 344.89234 289.50976 349.75 298.53125 C 349.45924 301.35258 349.3125 304.18411 349.3125 307.0625 C 349.3125 366.42219 412.31692 414.5625 490.03125 414.5625 C 567.74558 414.5625 630.75 366.42219 630.75 307.0625 C 630.75 266.15631 600.81567 230.59914 556.78125 212.4375 C 534.17917 195.84701 501.84974 185.4375 465.96875 185.4375 z "
        />
  </g>
  <g
     inkscape:groupmode="layer"
     
     id="right ear">
    <path
       style="fill:#ffff00;fill-rule:evenodd;stroke:#000000;stroke-width:1px;stroke-linecap:butt;stroke-linejoin:miter;stroke-opacity:1"
       d="m 181.4375,123.9375 c -50.75068,0.13938 -88.55888,14.88726 -95.65625,41.375 -9.239349,34.48172 7.59933,73.72125 77.59375,100.71875 42.78156,13.42166 121.33533,-12.64083 183.90625,4.125 13.19468,3.5355 28.80935,3.67511 39.75,4.28125 9.09608,-2.96155 23.25348,-8.81518 26.59375,-21.28125 10.81504,-40.36227 -53.81155,-92.74197 -144.34375,-117 -31.12044,-8.3387 -61.26006,-12.29176 -87.84375,-12.21875 z"
       
       inkscape:connector-curvature="0"
       sodipodi:nodetypes="sscscsss" />
  </g>
  <g
     inkscape:groupmode="layer"
     
     id="eye">
    <path
       sodipodi:type="arc"
       style="fill:#000000"
       
       sodipodi:cx="498.51028"
       sodipodi:cy="264.64523"
       sodipodi:rx="26.162951"
       sodipodi:ry="24.04163"
       d="m 524.67323,264.64523 a 26.162951,24.04163 0 1 1 -52.3259,0 26.162951,24.04163 0 1 1 52.3259,0 z"
       transform="matrix(0.88075552,0.41646134,-0.44601376,0.61778409,166.1663,-116.84676)" />
    <path
       style="fill:#000000"
       d="M 615.875 261.8125 C 601.57946 261.8125 589.96454 273.59707 589.71875 288.21875 C 591.96577 287.60572 594.35642 287.28125 596.8125 287.28125 C 610.87137 287.28125 622.25 298.03467 622.25 311.3125 C 622.25 312.50222 622.17672 313.66909 622 314.8125 C 633.50246 311.98653 642.0625 301.36686 642.0625 288.6875 C 642.0625 273.84758 630.3244 261.8125 615.875 261.8125 z "
        />
  </g>
</svg>
